<svg xmlns="http://www.w3.org/2000/svg" xmlns:xlink="http://www.w3.org/1999/xlink" viewBox="0,0,256,256" width="480px" height="480px"><defs><linearGradient x1="-8.007" y1="46.623" x2="68.222" y2="2.613" gradientUnits="userSpaceOnUse" id="color-1"><stop offset="0" stop-color="#0def6a"></stop><stop offset="1" stop-color="#262626" stop-opacity="0.8"></stop></linearGradient><linearGradient x1="-1.049" y1="31.049" x2="27.201" y2="2.799" gradientUnits="userSpaceOnUse" id="color-2"><stop offset="0" stop-color="#0def6a"></stop><stop offset="1" stop-color="#262626" stop-opacity="0.8"></stop></linearGradient><linearGradient x1="8.33" y1="-9.665" x2="40.332" y2="22.337" gradientUnits="userSpaceOnUse" id="color-3"><stop offset="0" stop-color="#0def6a"></stop><stop offset="1" stop-color="#262626" stop-opacity="0.8"></stop></linearGradient><linearGradient x1="5.1388" y1="31.49143" x2="44.62435" y2="31.49145" gradientUnits="userSpaceOnUse" id="color-4"><stop offset="0" stop-color="#0def6a"></stop><stop offset="1" stop-color="#262626" stop-opacity="0.8"></stop></linearGradient><linearGradient x1="9.93137" y1="22.90573" x2="24.33584" y2="40.07216" gradientUnits="userSpaceOnUse" id="color-5"><stop offset="0" stop-color="#0def6a"></stop><stop offset="1" stop-color="#262626" stop-opacity="0.8"></stop></linearGradient></defs><g fill="none" fill-rule="nonzero" stroke="none" stroke-width="1" stroke-linecap="butt" stroke-linejoin="miter" stroke-miterlimit="10" stroke-dasharray="" stroke-dashoffset="0" font-family="none" font-weight="none" font-size="none" text-anchor="none" style="mix-blend-mode: normal"><g transform="scale(5.33333,5.33333)"><path d="M47,19l-5.74,19.68c-0.747,2.56 -3.093,4.32 -5.76,4.32h-23c-2.667,0 -5.013,-1.76 -5.76,-4.32l-5.74,-19.68z" fill="url(#color-1)"></path><path d="M24.71,8.12l-10.89,10.88h-5.64l15.82,-15.83l0.71,0.71c1.17,1.17 1.17,3.07 0,4.24z" fill="url(#color-2)"></path><path d="M39.82,19h-5.64l-10.18,-10.17l0.71,-0.71c1.17,-1.17 1.17,-3.06 0,-4.23z" fill="url(#color-3)"></path><path d="M18.172,36.364l11.435,-11.435c1.172,-1.172 3.071,-1.172 4.243,0l1.707,1.707l-11.436,11.435c-1.172,1.172 -3.071,1.172 -4.243,0z" fill="url(#color-4)"></path><path d="M12.401,30.593l5.771,5.771l3.828,-3.828l-3.65,-3.65c-1.172,-1.172 -3.071,-1.172 -4.243,0z" fill="url(#color-5)"></path></g></g></svg>