<svg xmlns="http://www.w3.org/2000/svg" xmlns:xlink="http://www.w3.org/1999/xlink" viewBox="0,0,256,256" width="480px" height="480px"><defs><linearGradient x1="-2.558" y1="48.333" x2="58.369" y2="13.157" gradientUnits="userSpaceOnUse" id="color-1"><stop offset="0" stop-color="#0def6a"></stop><stop offset="1" stop-color="#262626" stop-opacity="0.8"></stop></linearGradient><linearGradient x1="18.262" y1="36.313" x2="28.946" y2="30.145" gradientUnits="userSpaceOnUse" id="color-2"><stop offset="0" stop-color="#0def6a"></stop><stop offset="1" stop-color="#262626" stop-opacity="0.8"></stop></linearGradient><linearGradient x1="9.262" y1="36.313" x2="19.946" y2="30.145" gradientUnits="userSpaceOnUse" id="color-3"><stop offset="0" stop-color="#0def6a"></stop><stop offset="1" stop-color="#262626" stop-opacity="0.8"></stop></linearGradient><linearGradient x1="27.262" y1="36.313" x2="37.946" y2="30.145" gradientUnits="userSpaceOnUse" id="color-4"><stop offset="0" stop-color="#0def6a"></stop><stop offset="1" stop-color="#262626" stop-opacity="0.8"></stop></linearGradient><linearGradient x1="38.206" y1="-22.177" x2="19.14" y2="30.204" gradientUnits="userSpaceOnUse" id="color-5"><stop offset="0" stop-color="#0def6a"></stop><stop offset="1" stop-color="#262626" stop-opacity="0.8"></stop></linearGradient></defs><g fill="none" fill-rule="nonzero" stroke="none" stroke-width="1" stroke-linecap="butt" stroke-linejoin="miter" stroke-miterlimit="10" stroke-dasharray="" stroke-dashoffset="0" font-family="none" font-weight="none" font-size="none" text-anchor="none" style="mix-blend-mode: normal"><g transform="scale(5.33333,5.33333)"><path d="M42,39c0,3.3 -2.7,6 -6,6h-30v-18c0,-3.3 2.7,-6 6,-6h30z" fill="url(#color-1)"></path><circle cx="24" cy="33" r="3" fill="url(#color-2)"></circle><circle cx="15" cy="33" r="3" fill="url(#color-3)"></circle><circle cx="33" cy="33" r="3" fill="url(#color-4)"></circle><path d="M37,15v6h-6v-6c0,-3.86 -3.14,-7 -7,-7c-3.86,0 -7,3.14 -7,7v6h-5c-0.34,0 -0.67,0.03 -1,0.09v-6.09c0,-7.17 5.83,-13 13,-13c7.17,0 13,5.83 13,13z" fill="url(#color-5)"></path></g></g></svg>