<svg xmlns="http://www.w3.org/2000/svg" xmlns:xlink="http://www.w3.org/1999/xlink" viewBox="0,0,256,256" width="480px" height="480px"><defs><linearGradient x1="-11.687" y1="47.288" x2="36.118" y2="19.688" gradientUnits="userSpaceOnUse" id="color-1"><stop offset="0" stop-color="#0def6a"></stop><stop offset="1" stop-color="#262626" stop-opacity="0.8"></stop></linearGradient><linearGradient x1="2.148" y1="32.064" x2="19.401" y2="2.18" gradientUnits="userSpaceOnUse" id="color-2"><stop offset="0" stop-color="#0def6a"></stop><stop offset="1" stop-color="#262626" stop-opacity="0.8"></stop></linearGradient><linearGradient x1="12.313" y1="47.288" x2="60.118" y2="19.688" gradientUnits="userSpaceOnUse" id="color-3"><stop offset="0" stop-color="#0def6a"></stop><stop offset="1" stop-color="#262626" stop-opacity="0.8"></stop></linearGradient><linearGradient x1="26.148" y1="32.064" x2="43.401" y2="2.18" gradientUnits="userSpaceOnUse" id="color-4"><stop offset="0" stop-color="#0def6a"></stop><stop offset="1" stop-color="#262626" stop-opacity="0.8"></stop></linearGradient></defs><g fill="none" fill-rule="nonzero" stroke="none" stroke-width="1" stroke-linecap="butt" stroke-linejoin="miter" stroke-miterlimit="10" stroke-dasharray="" stroke-dashoffset="0" font-family="none" font-weight="none" font-size="none" text-anchor="none" style="mix-blend-mode: normal"><g transform="scale(5.33333,5.33333)"><path d="M24,39v-5c0,-5.523 -4.477,-10 -10,-10h-4c-5.523,0 -10,4.477 -10,10v5z" fill="url(#color-1)"></path><path d="M6,13v8h8c2.209,0 4,-1.791 4,-4v-8h-8c-2.209,0 -4,1.791 -4,4z" fill="url(#color-2)"></path><path d="M48,39v-5c0,-5.523 -4.477,-10 -10,-10h-4c-5.523,0 -10,4.477 -10,10v5z" fill="url(#color-3)"></path><path d="M30,13v8h8c2.209,0 4,-1.791 4,-4v-8h-8c-2.209,0 -4,1.791 -4,4z" fill="url(#color-4)"></path></g></g></svg>