<svg xmlns="http://www.w3.org/2000/svg" xmlns:xlink="http://www.w3.org/1999/xlink" viewBox="0,0,256,256" width="480px" height="480px"><defs><linearGradient x1="-5.114" y1="31.309" x2="69.232" y2="-11.615" gradientUnits="userSpaceOnUse" id="color-1"><stop offset="0" stop-color="#0def6a"></stop><stop offset="1" stop-color="#262626" stop-opacity="0.8"></stop></linearGradient><linearGradient x1="4.951" y1="37.202" x2="41.107" y2="-5.887" gradientUnits="userSpaceOnUse" id="color-2"><stop offset="0" stop-color="#0def6a"></stop><stop offset="1" stop-color="#262626" stop-opacity="0.8"></stop></linearGradient><linearGradient x1="7.201" y1="15.203" x2="71.205" y2="79.206" gradientUnits="userSpaceOnUse" id="color-3"><stop offset="0" stop-color="#0def6a"></stop><stop offset="1" stop-color="#262626" stop-opacity="0.8"></stop></linearGradient><linearGradient x1="-6.887" y1="1.114" x2="45.378" y2="53.379" gradientUnits="userSpaceOnUse" id="color-4"><stop offset="0" stop-color="#0def6a"></stop><stop offset="1" stop-color="#262626" stop-opacity="0.8"></stop></linearGradient><linearGradient x1="16.48" y1="23.608" x2="31.038" y2="38.166" gradientUnits="userSpaceOnUse" id="color-5"><stop offset="0" stop-color="#0def6a"></stop><stop offset="1" stop-color="#262626" stop-opacity="0.8"></stop></linearGradient><linearGradient x1="24" y1="56.463" x2="24" y2="7.154" gradientUnits="userSpaceOnUse" id="color-6"><stop offset="0" stop-color="#0def6a"></stop><stop offset="1" stop-color="#262626" stop-opacity="0.8"></stop></linearGradient></defs><g fill="none" fill-rule="nonzero" stroke="none" stroke-width="1" stroke-linecap="butt" stroke-linejoin="miter" stroke-miterlimit="10" stroke-dasharray="" stroke-dashoffset="0" font-family="none" font-weight="none" font-size="none" text-anchor="none" style="mix-blend-mode: normal"><g transform="scale(5.33333,5.33333)"><path d="M46,6v11c0,3.31 -2.69,6 -6,6h-4.28c-6.89,-5.32 -16.55,-5.32 -23.44,0h-10.28v-11c0,-3.31 2.69,-6 6,-6z" fill="url(#color-1)"></path><path d="M22,14.5c0,1.381 -1.119,2.5 -2.5,2.5c-1.381,0 -2.5,-1.119 -2.5,-2.5c0,-1.381 1.119,-2.5 2.5,-2.5c1.381,0 2.5,1.119 2.5,2.5zM28.5,12c-1.381,0 -2.5,1.119 -2.5,2.5c0,1.381 1.119,2.5 2.5,2.5c1.381,0 2.5,-1.119 2.5,-2.5c0,-1.381 -1.119,-2.5 -2.5,-2.5zM37.5,12c-1.381,0 -2.5,1.119 -2.5,2.5c0,1.381 1.119,2.5 2.5,2.5c1.381,0 2.5,-1.119 2.5,-2.5c0,-1.381 -1.119,-2.5 -2.5,-2.5zM10.5,12c-1.381,0 -2.5,1.119 -2.5,2.5c0,1.381 1.119,2.5 2.5,2.5c1.381,0 2.5,-1.119 2.5,-2.5c0,-1.381 -1.119,-2.5 -2.5,-2.5z" fill="url(#color-2)"></path><path d="M44.956,32.001l-7.373,7.373c-7.502,7.502 -19.664,7.502 -27.166,0l-7.373,-7.373l7.373,-7.373c7.502,-7.502 19.664,-7.502 27.166,0z" fill="url(#color-3)"></path><path d="M44.956,32.001l-2.471,2.471c-7.653,-7.661 -10.666,-10.472 -18.485,-10.472c-7.813,0 -10.825,2.804 -18.484,10.472l-2.471,-2.471l7.369,-7.369c7.509,-7.509 19.663,-7.509 27.172,0z" fill="url(#color-4)"></path><circle cx="24" cy="31.128" r="4" fill="url(#color-5)"></circle><path d="M34,31c0,5.53 -4.47,10 -10,10c-5.53,0 -10,-4.47 -10,-10c0,-1.83 0.5,-3.55 1.36,-5.03c2.48,-1.38 5.06,-1.97 8.64,-1.97c3.59,0 6.17,0.59 8.65,1.98c0.86,1.47 1.35,3.19 1.35,5.02z" fill="url(#color-6)"></path></g></g></svg>