<svg width="722" height="422" viewBox="0 0 722 422" fill="none" xmlns="http://www.w3.org/2000/svg">
<path d="M4.07827 1.84505L2.03914 1.99071e-05L0 1.84505L2.03914 3.69008L4.07827 1.84505Z" fill="#EDEDED"/>
<path d="M29.7119 1.84505L27.6728 1.99071e-05L25.6337 1.84505L27.6728 3.69008L29.7119 1.84505Z" fill="#EDEDED"/>
<path d="M55.3453 1.84505L53.3062 1.99071e-05L51.267 1.84505L53.3062 3.69008L55.3453 1.84505Z" fill="#EDEDED"/>
<path d="M80.979 1.84505L78.9398 1.99071e-05L76.9007 1.84505L78.9398 3.69008L80.979 1.84505Z" fill="#EDEDED"/>
<path d="M106.613 1.84505L104.574 1.99071e-05L102.534 1.84505L104.574 3.69008L106.613 1.84505Z" fill="#EDEDED"/>
<path d="M132.246 1.84505L130.207 1.99071e-05L128.168 1.84505L130.207 3.69008L132.246 1.84505Z" fill="#EDEDED"/>
<path d="M157.88 1.84505L155.841 1.99071e-05L153.801 1.84505L155.841 3.69008L157.88 1.84505Z" fill="#EDEDED"/>
<path d="M183.513 1.84505L181.474 1.99071e-05L179.435 1.84505L181.474 3.69008L183.513 1.84505Z" fill="#EDEDED"/>
<path d="M209.147 1.84505L207.108 1.99071e-05L205.068 1.84505L207.108 3.69008L209.147 1.84505Z" fill="#EDEDED"/>
<path d="M234.78 1.84505L232.741 1.99071e-05L230.702 1.84505L232.741 3.69008L234.78 1.84505Z" fill="#EDEDED"/>
<path d="M260.414 1.84505L258.375 1.99071e-05L256.335 1.84505L258.375 3.69008L260.414 1.84505Z" fill="#EDEDED"/>
<path d="M286.047 1.84505L284.008 1.99071e-05L281.969 1.84505L284.008 3.69008L286.047 1.84505Z" fill="#EDEDED"/>
<path d="M311.681 1.84505L309.642 1.99071e-05L307.603 1.84505L309.642 3.69008L311.681 1.84505Z" fill="#EDEDED"/>
<path d="M337.314 1.84505L335.275 1.99071e-05L333.236 1.84505L335.275 3.69008L337.314 1.84505Z" fill="#EDEDED"/>
<path d="M362.948 1.84505L360.909 1.99071e-05L358.87 1.84505L360.909 3.69008L362.948 1.84505Z" fill="#EDEDED"/>
<path d="M388.581 1.84505L386.542 1.99071e-05L384.503 1.84505L386.542 3.69008L388.581 1.84505Z" fill="#EDEDED"/>
<path d="M414.215 1.84505L412.176 1.99071e-05L410.137 1.84505L412.176 3.69008L414.215 1.84505Z" fill="#EDEDED"/>
<path d="M439.849 1.84505L437.809 1.99071e-05L435.77 1.84505L437.809 3.69008L439.849 1.84505Z" fill="#EDEDED"/>
<path d="M465.482 1.84505L463.443 1.99071e-05L461.404 1.84505L463.443 3.69008L465.482 1.84505Z" fill="#EDEDED"/>
<path d="M4.07827 25.0386L2.03914 23.1936L0 25.0386L2.03914 26.8836L4.07827 25.0386Z" fill="#EDEDED"/>
<path d="M29.7119 25.0386L27.6728 23.1936L25.6337 25.0386L27.6728 26.8836L29.7119 25.0386Z" fill="#EDEDED"/>
<path d="M55.3453 25.0386L53.3062 23.1936L51.267 25.0386L53.3062 26.8836L55.3453 25.0386Z" fill="#EDEDED"/>
<path d="M80.979 25.0386L78.9398 23.1936L76.9007 25.0386L78.9398 26.8836L80.979 25.0386Z" fill="#EDEDED"/>
<path d="M106.613 25.0386L104.574 23.1936L102.534 25.0386L104.574 26.8836L106.613 25.0386Z" fill="#EDEDED"/>
<path d="M132.246 25.0386L130.207 23.1936L128.168 25.0386L130.207 26.8836L132.246 25.0386Z" fill="#EDEDED"/>
<path d="M157.88 25.0386L155.841 23.1936L153.801 25.0386L155.841 26.8836L157.88 25.0386Z" fill="#EDEDED"/>
<path d="M183.513 25.0386L181.474 23.1936L179.435 25.0386L181.474 26.8836L183.513 25.0386Z" fill="#EDEDED"/>
<path d="M209.147 25.0386L207.108 23.1936L205.068 25.0386L207.108 26.8836L209.147 25.0386Z" fill="#EDEDED"/>
<path d="M234.78 25.0386L232.741 23.1936L230.702 25.0386L232.741 26.8836L234.78 25.0386Z" fill="#EDEDED"/>
<path d="M260.414 25.0386L258.375 23.1936L256.335 25.0386L258.375 26.8836L260.414 25.0386Z" fill="#EDEDED"/>
<path d="M286.047 25.0386L284.008 23.1936L281.969 25.0386L284.008 26.8836L286.047 25.0386Z" fill="#EDEDED"/>
<path d="M311.681 25.0386L309.642 23.1936L307.603 25.0386L309.642 26.8836L311.681 25.0386Z" fill="#EDEDED"/>
<path d="M337.314 25.0386L335.275 23.1936L333.236 25.0386L335.275 26.8836L337.314 25.0386Z" fill="#EDEDED"/>
<path d="M362.948 25.0386L360.909 23.1936L358.87 25.0386L360.909 26.8836L362.948 25.0386Z" fill="#EDEDED"/>
<path d="M388.581 25.0386L386.542 23.1936L384.503 25.0386L386.542 26.8836L388.581 25.0386Z" fill="#EDEDED"/>
<path d="M414.215 25.0386L412.176 23.1936L410.137 25.0386L412.176 26.8836L414.215 25.0386Z" fill="#EDEDED"/>
<path d="M439.849 25.0386L437.809 23.1936L435.77 25.0386L437.809 26.8836L439.849 25.0386Z" fill="#EDEDED"/>
<path d="M465.482 25.0386L463.443 23.1936L461.404 25.0386L463.443 26.8836L465.482 25.0386Z" fill="#EDEDED"/>
<path d="M4.07827 48.2322L2.03914 46.3871L0 48.2322L2.03914 50.0772L4.07827 48.2322Z" fill="#EDEDED"/>
<path d="M29.7119 48.2322L27.6728 46.3871L25.6337 48.2322L27.6728 50.0772L29.7119 48.2322Z" fill="#EDEDED"/>
<path d="M55.3453 48.2322L53.3062 46.3871L51.267 48.2322L53.3062 50.0772L55.3453 48.2322Z" fill="#EDEDED"/>
<path d="M80.979 48.2322L78.9398 46.3871L76.9007 48.2322L78.9398 50.0772L80.979 48.2322Z" fill="#EDEDED"/>
<path d="M106.613 48.2322L104.574 46.3871L102.534 48.2322L104.574 50.0772L106.613 48.2322Z" fill="#EDEDED"/>
<path d="M132.246 48.2322L130.207 46.3871L128.168 48.2322L130.207 50.0772L132.246 48.2322Z" fill="#EDEDED"/>
<path d="M157.88 48.2322L155.841 46.3871L153.801 48.2322L155.841 50.0772L157.88 48.2322Z" fill="#EDEDED"/>
<path d="M183.513 48.2322L181.474 46.3871L179.435 48.2322L181.474 50.0772L183.513 48.2322Z" fill="#EDEDED"/>
<path d="M209.147 48.2322L207.108 46.3871L205.068 48.2322L207.108 50.0772L209.147 48.2322Z" fill="#EDEDED"/>
<path d="M234.78 48.2322L232.741 46.3871L230.702 48.2322L232.741 50.0772L234.78 48.2322Z" fill="#EDEDED"/>
<path d="M260.414 48.2322L258.375 46.3871L256.335 48.2322L258.375 50.0772L260.414 48.2322Z" fill="#EDEDED"/>
<path d="M286.047 48.2322L284.008 46.3871L281.969 48.2322L284.008 50.0772L286.047 48.2322Z" fill="#EDEDED"/>
<path d="M311.681 48.2322L309.642 46.3871L307.603 48.2322L309.642 50.0772L311.681 48.2322Z" fill="#EDEDED"/>
<path d="M337.314 48.2322L335.275 46.3871L333.236 48.2322L335.275 50.0772L337.314 48.2322Z" fill="#EDEDED"/>
<path d="M362.948 48.2322L360.909 46.3871L358.87 48.2322L360.909 50.0772L362.948 48.2322Z" fill="#EDEDED"/>
<path d="M388.581 48.2322L386.542 46.3871L384.503 48.2322L386.542 50.0772L388.581 48.2322Z" fill="#EDEDED"/>
<path d="M414.215 48.2322L412.176 46.3871L410.137 48.2322L412.176 50.0772L414.215 48.2322Z" fill="#EDEDED"/>
<path d="M439.849 48.2322L437.809 46.3871L435.77 48.2322L437.809 50.0772L439.849 48.2322Z" fill="#EDEDED"/>
<path d="M465.482 48.2322L463.443 46.3871L461.404 48.2322L463.443 50.0772L465.482 48.2322Z" fill="#EDEDED"/>
<path d="M4.07827 71.4257L2.03914 69.5807L0 71.4257L2.03914 73.2707L4.07827 71.4257Z" fill="#EDEDED"/>
<path d="M29.7119 71.4257L27.6728 69.5807L25.6337 71.4257L27.6728 73.2707L29.7119 71.4257Z" fill="#EDEDED"/>
<path d="M55.3453 71.4257L53.3062 69.5807L51.267 71.4257L53.3062 73.2707L55.3453 71.4257Z" fill="#EDEDED"/>
<path d="M80.979 71.4257L78.9398 69.5807L76.9007 71.4257L78.9398 73.2707L80.979 71.4257Z" fill="#EDEDED"/>
<path d="M106.613 71.4257L104.574 69.5807L102.534 71.4257L104.574 73.2707L106.613 71.4257Z" fill="#EDEDED"/>
<path d="M132.246 71.4257L130.207 69.5807L128.168 71.4257L130.207 73.2707L132.246 71.4257Z" fill="#EDEDED"/>
<path d="M157.88 71.4257L155.841 69.5807L153.801 71.4257L155.841 73.2707L157.88 71.4257Z" fill="#EDEDED"/>
<path d="M183.513 71.4257L181.474 69.5807L179.435 71.4257L181.474 73.2707L183.513 71.4257Z" fill="#EDEDED"/>
<path d="M209.147 71.4257L207.108 69.5807L205.068 71.4257L207.108 73.2707L209.147 71.4257Z" fill="#EDEDED"/>
<path d="M234.78 71.4257L232.741 69.5807L230.702 71.4257L232.741 73.2707L234.78 71.4257Z" fill="#EDEDED"/>
<path d="M260.414 71.4257L258.375 69.5807L256.335 71.4257L258.375 73.2707L260.414 71.4257Z" fill="#EDEDED"/>
<path d="M286.047 71.4257L284.008 69.5807L281.969 71.4257L284.008 73.2707L286.047 71.4257Z" fill="#EDEDED"/>
<path d="M311.681 71.4257L309.642 69.5807L307.603 71.4257L309.642 73.2707L311.681 71.4257Z" fill="#EDEDED"/>
<path d="M337.314 71.4257L335.275 69.5807L333.236 71.4257L335.275 73.2707L337.314 71.4257Z" fill="#EDEDED"/>
<path d="M362.948 71.4257L360.909 69.5807L358.87 71.4257L360.909 73.2707L362.948 71.4257Z" fill="#EDEDED"/>
<path d="M388.581 71.4257L386.542 69.5807L384.503 71.4257L386.542 73.2707L388.581 71.4257Z" fill="#EDEDED"/>
<path d="M414.215 71.4257L412.176 69.5807L410.137 71.4257L412.176 73.2707L414.215 71.4257Z" fill="#EDEDED"/>
<path d="M439.849 71.4257L437.809 69.5807L435.77 71.4257L437.809 73.2707L439.849 71.4257Z" fill="#EDEDED"/>
<path d="M465.482 71.4257L463.443 69.5807L461.404 71.4257L463.443 73.2707L465.482 71.4257Z" fill="#EDEDED"/>
<path d="M4.07827 94.619L2.03914 92.774L0 94.619L2.03914 96.464L4.07827 94.619Z" fill="#EDEDED"/>
<path d="M29.7119 94.619L27.6728 92.774L25.6337 94.619L27.6728 96.464L29.7119 94.619Z" fill="#EDEDED"/>
<path d="M55.3453 94.619L53.3062 92.774L51.267 94.619L53.3062 96.464L55.3453 94.619Z" fill="#EDEDED"/>
<path d="M80.979 94.619L78.9398 92.774L76.9007 94.619L78.9398 96.464L80.979 94.619Z" fill="#EDEDED"/>
<path d="M106.613 94.619L104.574 92.774L102.534 94.619L104.574 96.464L106.613 94.619Z" fill="#EDEDED"/>
<path d="M132.246 94.619L130.207 92.774L128.168 94.619L130.207 96.464L132.246 94.619Z" fill="#EDEDED"/>
<path d="M157.88 94.619L155.841 92.774L153.801 94.619L155.841 96.464L157.88 94.619Z" fill="#EDEDED"/>
<path d="M183.513 94.619L181.474 92.774L179.435 94.619L181.474 96.464L183.513 94.619Z" fill="#EDEDED"/>
<path d="M209.147 94.619L207.108 92.774L205.068 94.619L207.108 96.464L209.147 94.619Z" fill="#EDEDED"/>
<path d="M234.78 94.619L232.741 92.774L230.702 94.619L232.741 96.464L234.78 94.619Z" fill="#EDEDED"/>
<path d="M260.414 94.619L258.375 92.774L256.335 94.619L258.375 96.464L260.414 94.619Z" fill="#EDEDED"/>
<path d="M286.047 94.619L284.008 92.774L281.969 94.619L284.008 96.464L286.047 94.619Z" fill="#EDEDED"/>
<path d="M311.681 94.619L309.642 92.774L307.603 94.619L309.642 96.464L311.681 94.619Z" fill="#EDEDED"/>
<path d="M337.314 94.619L335.275 92.774L333.236 94.619L335.275 96.464L337.314 94.619Z" fill="#EDEDED"/>
<path d="M362.948 94.619L360.909 92.774L358.87 94.619L360.909 96.464L362.948 94.619Z" fill="#EDEDED"/>
<path d="M388.581 94.619L386.542 92.774L384.503 94.619L386.542 96.464L388.581 94.619Z" fill="#EDEDED"/>
<path d="M414.215 94.619L412.176 92.774L410.137 94.619L412.176 96.464L414.215 94.619Z" fill="#EDEDED"/>
<path d="M439.849 94.619L437.809 92.774L435.77 94.619L437.809 96.464L439.849 94.619Z" fill="#EDEDED"/>
<path d="M465.482 94.619L463.443 92.774L461.404 94.619L463.443 96.464L465.482 94.619Z" fill="#EDEDED"/>
<path d="M4.07827 117.813L2.03914 115.968L0 117.813L2.03914 119.658L4.07827 117.813Z" fill="#EDEDED"/>
<path d="M29.7119 117.813L27.6728 115.968L25.6337 117.813L27.6728 119.658L29.7119 117.813Z" fill="#EDEDED"/>
<path d="M55.3453 117.813L53.3062 115.968L51.267 117.813L53.3062 119.658L55.3453 117.813Z" fill="#EDEDED"/>
<path d="M80.979 117.813L78.9398 115.968L76.9007 117.813L78.9398 119.658L80.979 117.813Z" fill="#EDEDED"/>
<path d="M106.613 117.813L104.574 115.968L102.534 117.813L104.574 119.658L106.613 117.813Z" fill="#EDEDED"/>
<path d="M132.246 117.813L130.207 115.968L128.168 117.813L130.207 119.658L132.246 117.813Z" fill="#EDEDED"/>
<path d="M157.88 117.813L155.841 115.968L153.801 117.813L155.841 119.658L157.88 117.813Z" fill="#EDEDED"/>
<path d="M183.513 117.813L181.474 115.968L179.435 117.813L181.474 119.658L183.513 117.813Z" fill="#EDEDED"/>
<path d="M209.147 117.813L207.108 115.968L205.068 117.813L207.108 119.658L209.147 117.813Z" fill="#EDEDED"/>
<path d="M234.78 117.813L232.741 115.968L230.702 117.813L232.741 119.658L234.78 117.813Z" fill="#EDEDED"/>
<path d="M260.414 117.813L258.375 115.968L256.335 117.813L258.375 119.658L260.414 117.813Z" fill="#EDEDED"/>
<path d="M286.047 117.813L284.008 115.968L281.969 117.813L284.008 119.658L286.047 117.813Z" fill="#EDEDED"/>
<path d="M311.681 117.813L309.642 115.968L307.603 117.813L309.642 119.658L311.681 117.813Z" fill="#EDEDED"/>
<path d="M337.314 117.813L335.275 115.968L333.236 117.813L335.275 119.658L337.314 117.813Z" fill="#EDEDED"/>
<path d="M362.948 117.813L360.909 115.968L358.87 117.813L360.909 119.658L362.948 117.813Z" fill="#EDEDED"/>
<path d="M388.581 117.813L386.542 115.968L384.503 117.813L386.542 119.658L388.581 117.813Z" fill="#EDEDED"/>
<path d="M414.215 117.813L412.176 115.968L410.137 117.813L412.176 119.658L414.215 117.813Z" fill="#EDEDED"/>
<path d="M439.849 117.813L437.809 115.968L435.77 117.813L437.809 119.658L439.849 117.813Z" fill="#EDEDED"/>
<path d="M465.482 117.813L463.443 115.968L461.404 117.813L463.443 119.658L465.482 117.813Z" fill="#EDEDED"/>
<path d="M4.07827 141.006L2.03914 139.161L0 141.006L2.03914 142.851L4.07827 141.006Z" fill="#EDEDED"/>
<path d="M29.7119 141.006L27.6728 139.161L25.6337 141.006L27.6728 142.851L29.7119 141.006Z" fill="#EDEDED"/>
<path d="M55.3453 141.006L53.3062 139.161L51.267 141.006L53.3062 142.851L55.3453 141.006Z" fill="#EDEDED"/>
<path d="M80.979 141.006L78.9398 139.161L76.9007 141.006L78.9398 142.851L80.979 141.006Z" fill="#EDEDED"/>
<path d="M106.613 141.006L104.574 139.161L102.534 141.006L104.574 142.851L106.613 141.006Z" fill="#EDEDED"/>
<path d="M132.246 141.006L130.207 139.161L128.168 141.006L130.207 142.851L132.246 141.006Z" fill="#EDEDED"/>
<path d="M157.88 141.006L155.841 139.161L153.801 141.006L155.841 142.851L157.88 141.006Z" fill="#EDEDED"/>
<path d="M183.513 141.006L181.474 139.161L179.435 141.006L181.474 142.851L183.513 141.006Z" fill="#EDEDED"/>
<path d="M209.147 141.006L207.108 139.161L205.068 141.006L207.108 142.851L209.147 141.006Z" fill="#EDEDED"/>
<path d="M234.78 141.006L232.741 139.161L230.702 141.006L232.741 142.851L234.78 141.006Z" fill="#EDEDED"/>
<path d="M260.414 141.006L258.375 139.161L256.335 141.006L258.375 142.851L260.414 141.006Z" fill="#EDEDED"/>
<path d="M286.047 141.006L284.008 139.161L281.969 141.006L284.008 142.851L286.047 141.006Z" fill="#EDEDED"/>
<path d="M311.681 141.006L309.642 139.161L307.603 141.006L309.642 142.851L311.681 141.006Z" fill="#EDEDED"/>
<path d="M337.314 141.006L335.275 139.161L333.236 141.006L335.275 142.851L337.314 141.006Z" fill="#EDEDED"/>
<path d="M362.948 141.006L360.909 139.161L358.87 141.006L360.909 142.851L362.948 141.006Z" fill="#EDEDED"/>
<path d="M388.581 141.006L386.542 139.161L384.503 141.006L386.542 142.851L388.581 141.006Z" fill="#EDEDED"/>
<path d="M414.215 141.006L412.176 139.161L410.137 141.006L412.176 142.851L414.215 141.006Z" fill="#EDEDED"/>
<path d="M439.849 141.006L437.809 139.161L435.77 141.006L437.809 142.851L439.849 141.006Z" fill="#EDEDED"/>
<path d="M465.482 141.006L463.443 139.161L461.404 141.006L463.443 142.851L465.482 141.006Z" fill="#EDEDED"/>
<path d="M4.07827 164.199L2.03914 162.354L0 164.199L2.03914 166.044L4.07827 164.199Z" fill="#EDEDED"/>
<path d="M29.7119 164.199L27.6728 162.354L25.6337 164.199L27.6728 166.044L29.7119 164.199Z" fill="#EDEDED"/>
<path d="M55.3453 164.199L53.3062 162.354L51.267 164.199L53.3062 166.044L55.3453 164.199Z" fill="#EDEDED"/>
<path d="M80.979 164.199L78.9398 162.354L76.9007 164.199L78.9398 166.044L80.979 164.199Z" fill="#EDEDED"/>
<path d="M106.613 164.199L104.574 162.354L102.534 164.199L104.574 166.044L106.613 164.199Z" fill="#EDEDED"/>
<path d="M132.246 164.199L130.207 162.354L128.168 164.199L130.207 166.044L132.246 164.199Z" fill="#EDEDED"/>
<path d="M157.88 164.199L155.841 162.354L153.801 164.199L155.841 166.044L157.88 164.199Z" fill="#EDEDED"/>
<path d="M183.513 164.199L181.474 162.354L179.435 164.199L181.474 166.044L183.513 164.199Z" fill="#EDEDED"/>
<path d="M209.147 164.199L207.108 162.354L205.068 164.199L207.108 166.044L209.147 164.199Z" fill="#EDEDED"/>
<path d="M234.78 164.199L232.741 162.354L230.702 164.199L232.741 166.044L234.78 164.199Z" fill="#EDEDED"/>
<path d="M260.414 164.199L258.375 162.354L256.335 164.199L258.375 166.044L260.414 164.199Z" fill="#EDEDED"/>
<path d="M286.047 164.199L284.008 162.354L281.969 164.199L284.008 166.044L286.047 164.199Z" fill="#EDEDED"/>
<path d="M311.681 164.199L309.642 162.354L307.603 164.199L309.642 166.044L311.681 164.199Z" fill="#EDEDED"/>
<path d="M337.314 164.199L335.275 162.354L333.236 164.199L335.275 166.044L337.314 164.199Z" fill="#EDEDED"/>
<path d="M362.948 164.199L360.909 162.354L358.87 164.199L360.909 166.044L362.948 164.199Z" fill="#EDEDED"/>
<path d="M388.581 164.199L386.542 162.354L384.503 164.199L386.542 166.044L388.581 164.199Z" fill="#EDEDED"/>
<path d="M414.215 164.199L412.176 162.354L410.137 164.199L412.176 166.044L414.215 164.199Z" fill="#EDEDED"/>
<path d="M439.849 164.199L437.809 162.354L435.77 164.199L437.809 166.044L439.849 164.199Z" fill="#EDEDED"/>
<path d="M465.482 164.199L463.443 162.354L461.404 164.199L463.443 166.044L465.482 164.199Z" fill="#EDEDED"/>
<path d="M4.07827 187.393L2.03914 185.548L0 187.393L2.03914 189.238L4.07827 187.393Z" fill="#EDEDED"/>
<path d="M29.7119 187.393L27.6728 185.548L25.6337 187.393L27.6728 189.238L29.7119 187.393Z" fill="#EDEDED"/>
<path d="M55.3453 187.393L53.3062 185.548L51.267 187.393L53.3062 189.238L55.3453 187.393Z" fill="#EDEDED"/>
<path d="M80.979 187.393L78.9398 185.548L76.9007 187.393L78.9398 189.238L80.979 187.393Z" fill="#EDEDED"/>
<path d="M106.613 187.393L104.574 185.548L102.534 187.393L104.574 189.238L106.613 187.393Z" fill="#EDEDED"/>
<path d="M132.246 187.393L130.207 185.548L128.168 187.393L130.207 189.238L132.246 187.393Z" fill="#EDEDED"/>
<path d="M157.88 187.393L155.841 185.548L153.801 187.393L155.841 189.238L157.88 187.393Z" fill="#EDEDED"/>
<path d="M183.513 187.393L181.474 185.548L179.435 187.393L181.474 189.238L183.513 187.393Z" fill="#EDEDED"/>
<path d="M209.147 187.393L207.108 185.548L205.068 187.393L207.108 189.238L209.147 187.393Z" fill="#EDEDED"/>
<path d="M234.78 187.393L232.741 185.548L230.702 187.393L232.741 189.238L234.78 187.393Z" fill="#EDEDED"/>
<path d="M260.414 187.393L258.375 185.548L256.335 187.393L258.375 189.238L260.414 187.393Z" fill="#EDEDED"/>
<path d="M286.047 187.393L284.008 185.548L281.969 187.393L284.008 189.238L286.047 187.393Z" fill="#EDEDED"/>
<path d="M311.681 187.393L309.642 185.548L307.603 187.393L309.642 189.238L311.681 187.393Z" fill="#EDEDED"/>
<path d="M337.314 187.393L335.275 185.548L333.236 187.393L335.275 189.238L337.314 187.393Z" fill="#EDEDED"/>
<path d="M362.948 187.393L360.909 185.548L358.87 187.393L360.909 189.238L362.948 187.393Z" fill="#EDEDED"/>
<path d="M388.581 187.393L386.542 185.548L384.503 187.393L386.542 189.238L388.581 187.393Z" fill="#EDEDED"/>
<path d="M414.215 187.393L412.176 185.548L410.137 187.393L412.176 189.238L414.215 187.393Z" fill="#EDEDED"/>
<path d="M439.849 187.393L437.809 185.548L435.77 187.393L437.809 189.238L439.849 187.393Z" fill="#EDEDED"/>
<path d="M465.482 187.393L463.443 185.548L461.404 187.393L463.443 189.238L465.482 187.393Z" fill="#EDEDED"/>
<path d="M4.07827 210.587L2.03914 208.741L0 210.587L2.03914 212.432L4.07827 210.587Z" fill="#EDEDED"/>
<path d="M29.7119 210.587L27.6728 208.741L25.6337 210.587L27.6728 212.432L29.7119 210.587Z" fill="#EDEDED"/>
<path d="M55.3453 210.587L53.3062 208.741L51.267 210.587L53.3062 212.432L55.3453 210.587Z" fill="#EDEDED"/>
<path d="M80.979 210.587L78.9398 208.741L76.9007 210.587L78.9398 212.432L80.979 210.587Z" fill="#EDEDED"/>
<path d="M106.613 210.587L104.574 208.741L102.534 210.587L104.574 212.432L106.613 210.587Z" fill="#EDEDED"/>
<path d="M132.246 210.587L130.207 208.741L128.168 210.587L130.207 212.432L132.246 210.587Z" fill="#EDEDED"/>
<path d="M157.88 210.587L155.841 208.741L153.801 210.587L155.841 212.432L157.88 210.587Z" fill="#EDEDED"/>
<path d="M183.513 210.587L181.474 208.741L179.435 210.587L181.474 212.432L183.513 210.587Z" fill="#EDEDED"/>
<path d="M209.147 210.587L207.108 208.741L205.068 210.587L207.108 212.432L209.147 210.587Z" fill="#EDEDED"/>
<path d="M234.78 210.587L232.741 208.741L230.702 210.587L232.741 212.432L234.78 210.587Z" fill="#EDEDED"/>
<path d="M260.414 210.587L258.375 208.741L256.335 210.587L258.375 212.432L260.414 210.587Z" fill="#EDEDED"/>
<path d="M286.047 210.587L284.008 208.741L281.969 210.587L284.008 212.432L286.047 210.587Z" fill="#EDEDED"/>
<path d="M311.681 210.587L309.642 208.741L307.603 210.587L309.642 212.432L311.681 210.587Z" fill="#EDEDED"/>
<path d="M337.314 210.587L335.275 208.741L333.236 210.587L335.275 212.432L337.314 210.587Z" fill="#EDEDED"/>
<path d="M362.948 210.587L360.909 208.741L358.87 210.587L360.909 212.432L362.948 210.587Z" fill="#EDEDED"/>
<path d="M388.581 210.587L386.542 208.741L384.503 210.587L386.542 212.432L388.581 210.587Z" fill="#EDEDED"/>
<path d="M414.215 210.587L412.176 208.741L410.137 210.587L412.176 212.432L414.215 210.587Z" fill="#EDEDED"/>
<path d="M439.849 210.587L437.809 208.741L435.77 210.587L437.809 212.432L439.849 210.587Z" fill="#EDEDED"/>
<path d="M465.482 210.587L463.443 208.741L461.404 210.587L463.443 212.432L465.482 210.587Z" fill="#EDEDED"/>
<path d="M4.07827 233.78L2.03914 231.935L0 233.78L2.03914 235.625L4.07827 233.78Z" fill="#EDEDED"/>
<path d="M29.7119 233.78L27.6728 231.935L25.6337 233.78L27.6728 235.625L29.7119 233.78Z" fill="#EDEDED"/>
<path d="M55.3453 233.78L53.3062 231.935L51.267 233.78L53.3062 235.625L55.3453 233.78Z" fill="#EDEDED"/>
<path d="M80.979 233.78L78.9398 231.935L76.9007 233.78L78.9398 235.625L80.979 233.78Z" fill="#EDEDED"/>
<path d="M106.613 233.78L104.574 231.935L102.534 233.78L104.574 235.625L106.613 233.78Z" fill="#EDEDED"/>
<path d="M132.246 233.78L130.207 231.935L128.168 233.78L130.207 235.625L132.246 233.78Z" fill="#EDEDED"/>
<path d="M157.88 233.78L155.841 231.935L153.801 233.78L155.841 235.625L157.88 233.78Z" fill="#EDEDED"/>
<path d="M183.513 233.78L181.474 231.935L179.435 233.78L181.474 235.625L183.513 233.78Z" fill="#EDEDED"/>
<path d="M209.147 233.78L207.108 231.935L205.068 233.78L207.108 235.625L209.147 233.78Z" fill="#EDEDED"/>
<path d="M234.78 233.78L232.741 231.935L230.702 233.78L232.741 235.625L234.78 233.78Z" fill="#EDEDED"/>
<path d="M260.414 233.78L258.375 231.935L256.335 233.78L258.375 235.625L260.414 233.78Z" fill="#EDEDED"/>
<path d="M286.047 233.78L284.008 231.935L281.969 233.78L284.008 235.625L286.047 233.78Z" fill="#EDEDED"/>
<path d="M311.681 233.78L309.642 231.935L307.603 233.78L309.642 235.625L311.681 233.78Z" fill="#EDEDED"/>
<path d="M337.314 233.78L335.275 231.935L333.236 233.78L335.275 235.625L337.314 233.78Z" fill="#EDEDED"/>
<path d="M362.948 233.78L360.909 231.935L358.87 233.78L360.909 235.625L362.948 233.78Z" fill="#EDEDED"/>
<path d="M388.581 233.78L386.542 231.935L384.503 233.78L386.542 235.625L388.581 233.78Z" fill="#EDEDED"/>
<path d="M414.215 233.78L412.176 231.935L410.137 233.78L412.176 235.625L414.215 233.78Z" fill="#EDEDED"/>
<path d="M439.849 233.78L437.809 231.935L435.77 233.78L437.809 235.625L439.849 233.78Z" fill="#EDEDED"/>
<path d="M465.482 233.78L463.443 231.935L461.404 233.78L463.443 235.625L465.482 233.78Z" fill="#EDEDED"/>
<path d="M4.07827 256.973L2.03914 255.128L0 256.973L2.03914 258.818L4.07827 256.973Z" fill="#EDEDED"/>
<path d="M29.7119 256.973L27.6728 255.128L25.6337 256.973L27.6728 258.818L29.7119 256.973Z" fill="#EDEDED"/>
<path d="M55.3453 256.973L53.3062 255.128L51.267 256.973L53.3062 258.818L55.3453 256.973Z" fill="#EDEDED"/>
<path d="M80.979 256.973L78.9398 255.128L76.9007 256.973L78.9398 258.818L80.979 256.973Z" fill="#EDEDED"/>
<path d="M106.613 256.973L104.574 255.128L102.534 256.973L104.574 258.818L106.613 256.973Z" fill="#EDEDED"/>
<path d="M132.246 256.973L130.207 255.128L128.168 256.973L130.207 258.818L132.246 256.973Z" fill="#EDEDED"/>
<path d="M157.88 256.973L155.841 255.128L153.801 256.973L155.841 258.818L157.88 256.973Z" fill="#EDEDED"/>
<path d="M183.513 256.973L181.474 255.128L179.435 256.973L181.474 258.818L183.513 256.973Z" fill="#EDEDED"/>
<path d="M209.147 256.973L207.108 255.128L205.068 256.973L207.108 258.818L209.147 256.973Z" fill="#EDEDED"/>
<path d="M234.78 256.973L232.741 255.128L230.702 256.973L232.741 258.818L234.78 256.973Z" fill="#EDEDED"/>
<path d="M260.414 256.973L258.375 255.128L256.335 256.973L258.375 258.818L260.414 256.973Z" fill="#EDEDED"/>
<path d="M286.047 256.973L284.008 255.128L281.969 256.973L284.008 258.818L286.047 256.973Z" fill="#EDEDED"/>
<path d="M311.681 256.973L309.642 255.128L307.603 256.973L309.642 258.818L311.681 256.973Z" fill="#EDEDED"/>
<path d="M337.314 256.973L335.275 255.128L333.236 256.973L335.275 258.818L337.314 256.973Z" fill="#EDEDED"/>
<path d="M362.948 256.973L360.909 255.128L358.87 256.973L360.909 258.818L362.948 256.973Z" fill="#EDEDED"/>
<path d="M388.581 256.973L386.542 255.128L384.503 256.973L386.542 258.818L388.581 256.973Z" fill="#EDEDED"/>
<path d="M414.215 256.973L412.176 255.128L410.137 256.973L412.176 258.818L414.215 256.973Z" fill="#EDEDED"/>
<path d="M439.849 256.973L437.809 255.128L435.77 256.973L437.809 258.818L439.849 256.973Z" fill="#EDEDED"/>
<path d="M465.482 256.973L463.443 255.128L461.404 256.973L463.443 258.818L465.482 256.973Z" fill="#EDEDED"/>
<path d="M4.07827 280.167L2.03914 278.322L0 280.167L2.03914 282.012L4.07827 280.167Z" fill="#EDEDED"/>
<path d="M29.7119 280.167L27.6728 278.322L25.6337 280.167L27.6728 282.012L29.7119 280.167Z" fill="#EDEDED"/>
<path d="M55.3453 280.167L53.3062 278.322L51.267 280.167L53.3062 282.012L55.3453 280.167Z" fill="#EDEDED"/>
<path d="M80.979 280.167L78.9398 278.322L76.9007 280.167L78.9398 282.012L80.979 280.167Z" fill="#EDEDED"/>
<path d="M106.613 280.167L104.574 278.322L102.534 280.167L104.574 282.012L106.613 280.167Z" fill="#EDEDED"/>
<path d="M132.246 280.167L130.207 278.322L128.168 280.167L130.207 282.012L132.246 280.167Z" fill="#EDEDED"/>
<path d="M157.88 280.167L155.841 278.322L153.801 280.167L155.841 282.012L157.88 280.167Z" fill="#EDEDED"/>
<path d="M183.513 280.167L181.474 278.322L179.435 280.167L181.474 282.012L183.513 280.167Z" fill="#EDEDED"/>
<path d="M209.147 280.167L207.108 278.322L205.068 280.167L207.108 282.012L209.147 280.167Z" fill="#EDEDED"/>
<path d="M234.78 280.167L232.741 278.322L230.702 280.167L232.741 282.012L234.78 280.167Z" fill="#EDEDED"/>
<path d="M260.414 280.167L258.375 278.322L256.335 280.167L258.375 282.012L260.414 280.167Z" fill="#EDEDED"/>
<path d="M286.047 280.167L284.008 278.322L281.969 280.167L284.008 282.012L286.047 280.167Z" fill="#EDEDED"/>
<path d="M311.681 280.167L309.642 278.322L307.603 280.167L309.642 282.012L311.681 280.167Z" fill="#EDEDED"/>
<path d="M337.314 280.167L335.275 278.322L333.236 280.167L335.275 282.012L337.314 280.167Z" fill="#EDEDED"/>
<path d="M362.948 280.167L360.909 278.322L358.87 280.167L360.909 282.012L362.948 280.167Z" fill="#EDEDED"/>
<path d="M388.581 280.167L386.542 278.322L384.503 280.167L386.542 282.012L388.581 280.167Z" fill="#EDEDED"/>
<path d="M414.215 280.167L412.176 278.322L410.137 280.167L412.176 282.012L414.215 280.167Z" fill="#EDEDED"/>
<path d="M439.849 280.167L437.809 278.322L435.77 280.167L437.809 282.012L439.849 280.167Z" fill="#EDEDED"/>
<path d="M465.482 280.167L463.443 278.322L461.404 280.167L463.443 282.012L465.482 280.167Z" fill="#EDEDED"/>
<path d="M4.07827 303.36L2.03914 301.515L0 303.36L2.03914 305.205L4.07827 303.36Z" fill="#EDEDED"/>
<path d="M29.7119 303.36L27.6728 301.515L25.6337 303.36L27.6728 305.205L29.7119 303.36Z" fill="#EDEDED"/>
<path d="M55.3453 303.36L53.3062 301.515L51.267 303.36L53.3062 305.205L55.3453 303.36Z" fill="#EDEDED"/>
<path d="M80.979 303.36L78.9398 301.515L76.9007 303.36L78.9398 305.205L80.979 303.36Z" fill="#EDEDED"/>
<path d="M106.613 303.36L104.574 301.515L102.534 303.36L104.574 305.205L106.613 303.36Z" fill="#EDEDED"/>
<path d="M132.246 303.36L130.207 301.515L128.168 303.36L130.207 305.205L132.246 303.36Z" fill="#EDEDED"/>
<path d="M157.88 303.36L155.841 301.515L153.801 303.36L155.841 305.205L157.88 303.36Z" fill="#EDEDED"/>
<path d="M183.513 303.36L181.474 301.515L179.435 303.36L181.474 305.205L183.513 303.36Z" fill="#EDEDED"/>
<path d="M209.147 303.36L207.108 301.515L205.068 303.36L207.108 305.205L209.147 303.36Z" fill="#EDEDED"/>
<path d="M234.78 303.36L232.741 301.515L230.702 303.36L232.741 305.205L234.78 303.36Z" fill="#EDEDED"/>
<path d="M260.414 303.36L258.375 301.515L256.335 303.36L258.375 305.205L260.414 303.36Z" fill="#EDEDED"/>
<path d="M286.047 303.36L284.008 301.515L281.969 303.36L284.008 305.205L286.047 303.36Z" fill="#EDEDED"/>
<path d="M311.681 303.36L309.642 301.515L307.603 303.36L309.642 305.205L311.681 303.36Z" fill="#EDEDED"/>
<path d="M337.314 303.36L335.275 301.515L333.236 303.36L335.275 305.205L337.314 303.36Z" fill="#EDEDED"/>
<path d="M362.948 303.36L360.909 301.515L358.87 303.36L360.909 305.205L362.948 303.36Z" fill="#EDEDED"/>
<path d="M388.581 303.36L386.542 301.515L384.503 303.36L386.542 305.205L388.581 303.36Z" fill="#EDEDED"/>
<path d="M414.215 303.36L412.176 301.515L410.137 303.36L412.176 305.205L414.215 303.36Z" fill="#EDEDED"/>
<path d="M439.849 303.36L437.809 301.515L435.77 303.36L437.809 305.205L439.849 303.36Z" fill="#EDEDED"/>
<path d="M465.482 303.36L463.443 301.515L461.404 303.36L463.443 305.205L465.482 303.36Z" fill="#EDEDED"/>
<path d="M4.07827 326.553L2.03914 324.708L0 326.553L2.03914 328.398L4.07827 326.553Z" fill="#EDEDED"/>
<path d="M29.7119 326.553L27.6728 324.708L25.6337 326.553L27.6728 328.398L29.7119 326.553Z" fill="#EDEDED"/>
<path d="M55.3453 326.553L53.3062 324.708L51.267 326.553L53.3062 328.398L55.3453 326.553Z" fill="#EDEDED"/>
<path d="M80.979 326.553L78.9398 324.708L76.9007 326.553L78.9398 328.398L80.979 326.553Z" fill="#EDEDED"/>
<path d="M106.613 326.553L104.574 324.708L102.534 326.553L104.574 328.398L106.613 326.553Z" fill="#EDEDED"/>
<path d="M132.246 326.553L130.207 324.708L128.168 326.553L130.207 328.398L132.246 326.553Z" fill="#EDEDED"/>
<path d="M157.88 326.553L155.841 324.708L153.801 326.553L155.841 328.398L157.88 326.553Z" fill="#EDEDED"/>
<path d="M183.513 326.553L181.474 324.708L179.435 326.553L181.474 328.398L183.513 326.553Z" fill="#EDEDED"/>
<path d="M209.147 326.553L207.108 324.708L205.068 326.553L207.108 328.398L209.147 326.553Z" fill="#EDEDED"/>
<path d="M234.78 326.553L232.741 324.708L230.702 326.553L232.741 328.398L234.78 326.553Z" fill="#EDEDED"/>
<path d="M260.414 326.553L258.375 324.708L256.335 326.553L258.375 328.398L260.414 326.553Z" fill="#EDEDED"/>
<path d="M286.047 326.553L284.008 324.708L281.969 326.553L284.008 328.398L286.047 326.553Z" fill="#EDEDED"/>
<path d="M311.681 326.553L309.642 324.708L307.603 326.553L309.642 328.398L311.681 326.553Z" fill="#EDEDED"/>
<path d="M337.314 326.553L335.275 324.708L333.236 326.553L335.275 328.398L337.314 326.553Z" fill="#EDEDED"/>
<path d="M362.948 326.553L360.909 324.708L358.87 326.553L360.909 328.398L362.948 326.553Z" fill="#EDEDED"/>
<path d="M388.581 326.553L386.542 324.708L384.503 326.553L386.542 328.398L388.581 326.553Z" fill="#EDEDED"/>
<path d="M414.215 326.553L412.176 324.708L410.137 326.553L412.176 328.398L414.215 326.553Z" fill="#EDEDED"/>
<path d="M439.849 326.553L437.809 324.708L435.77 326.553L437.809 328.398L439.849 326.553Z" fill="#EDEDED"/>
<path d="M465.482 326.553L463.443 324.708L461.404 326.553L463.443 328.398L465.482 326.553Z" fill="#EDEDED"/>
<path d="M4.07827 349.747L2.03914 347.902L0 349.747L2.03914 351.592L4.07827 349.747Z" fill="#EDEDED"/>
<path d="M29.7119 349.747L27.6728 347.902L25.6337 349.747L27.6728 351.592L29.7119 349.747Z" fill="#EDEDED"/>
<path d="M55.3453 349.747L53.3062 347.902L51.267 349.747L53.3062 351.592L55.3453 349.747Z" fill="#EDEDED"/>
<path d="M80.979 349.747L78.9398 347.902L76.9007 349.747L78.9398 351.592L80.979 349.747Z" fill="#EDEDED"/>
<path d="M106.613 349.747L104.574 347.902L102.534 349.747L104.574 351.592L106.613 349.747Z" fill="#EDEDED"/>
<path d="M132.246 349.747L130.207 347.902L128.168 349.747L130.207 351.592L132.246 349.747Z" fill="#EDEDED"/>
<path d="M157.88 349.747L155.841 347.902L153.801 349.747L155.841 351.592L157.88 349.747Z" fill="#EDEDED"/>
<path d="M183.513 349.747L181.474 347.902L179.435 349.747L181.474 351.592L183.513 349.747Z" fill="#EDEDED"/>
<path d="M209.147 349.747L207.108 347.902L205.068 349.747L207.108 351.592L209.147 349.747Z" fill="#EDEDED"/>
<path d="M234.78 349.747L232.741 347.902L230.702 349.747L232.741 351.592L234.78 349.747Z" fill="#EDEDED"/>
<path d="M260.414 349.747L258.375 347.902L256.335 349.747L258.375 351.592L260.414 349.747Z" fill="#EDEDED"/>
<path d="M286.047 349.747L284.008 347.902L281.969 349.747L284.008 351.592L286.047 349.747Z" fill="#EDEDED"/>
<path d="M311.681 349.747L309.642 347.902L307.603 349.747L309.642 351.592L311.681 349.747Z" fill="#EDEDED"/>
<path d="M337.314 349.747L335.275 347.902L333.236 349.747L335.275 351.592L337.314 349.747Z" fill="#EDEDED"/>
<path d="M362.948 349.747L360.909 347.902L358.87 349.747L360.909 351.592L362.948 349.747Z" fill="#EDEDED"/>
<path d="M388.581 349.747L386.542 347.902L384.503 349.747L386.542 351.592L388.581 349.747Z" fill="#EDEDED"/>
<path d="M414.215 349.747L412.176 347.902L410.137 349.747L412.176 351.592L414.215 349.747Z" fill="#EDEDED"/>
<path d="M439.849 349.747L437.809 347.902L435.77 349.747L437.809 351.592L439.849 349.747Z" fill="#EDEDED"/>
<path d="M465.482 349.747L463.443 347.902L461.404 349.747L463.443 351.592L465.482 349.747Z" fill="#EDEDED"/>
<path d="M4.07827 372.941L2.03914 371.095L0 372.941L2.03914 374.786L4.07827 372.941Z" fill="#EDEDED"/>
<path d="M29.7119 372.941L27.6728 371.095L25.6337 372.941L27.6728 374.786L29.7119 372.941Z" fill="#EDEDED"/>
<path d="M55.3453 372.941L53.3062 371.095L51.267 372.941L53.3062 374.786L55.3453 372.941Z" fill="#EDEDED"/>
<path d="M80.979 372.941L78.9398 371.095L76.9007 372.941L78.9398 374.786L80.979 372.941Z" fill="#EDEDED"/>
<path d="M106.613 372.941L104.574 371.095L102.534 372.941L104.574 374.786L106.613 372.941Z" fill="#EDEDED"/>
<path d="M132.246 372.941L130.207 371.095L128.168 372.941L130.207 374.786L132.246 372.941Z" fill="#EDEDED"/>
<path d="M157.88 372.941L155.841 371.095L153.801 372.941L155.841 374.786L157.88 372.941Z" fill="#EDEDED"/>
<path d="M183.513 372.941L181.474 371.095L179.435 372.941L181.474 374.786L183.513 372.941Z" fill="#EDEDED"/>
<path d="M209.147 372.941L207.108 371.095L205.068 372.941L207.108 374.786L209.147 372.941Z" fill="#EDEDED"/>
<path d="M234.78 372.941L232.741 371.095L230.702 372.941L232.741 374.786L234.78 372.941Z" fill="#EDEDED"/>
<path d="M260.414 372.941L258.375 371.095L256.335 372.941L258.375 374.786L260.414 372.941Z" fill="#EDEDED"/>
<path d="M286.047 372.941L284.008 371.095L281.969 372.941L284.008 374.786L286.047 372.941Z" fill="#EDEDED"/>
<path d="M311.681 372.941L309.642 371.095L307.603 372.941L309.642 374.786L311.681 372.941Z" fill="#EDEDED"/>
<path d="M337.314 372.941L335.275 371.095L333.236 372.941L335.275 374.786L337.314 372.941Z" fill="#EDEDED"/>
<path d="M362.948 372.941L360.909 371.095L358.87 372.941L360.909 374.786L362.948 372.941Z" fill="#EDEDED"/>
<path d="M388.581 372.941L386.542 371.095L384.503 372.941L386.542 374.786L388.581 372.941Z" fill="#EDEDED"/>
<path d="M414.215 372.941L412.176 371.095L410.137 372.941L412.176 374.786L414.215 372.941Z" fill="#EDEDED"/>
<path d="M439.849 372.941L437.809 371.095L435.77 372.941L437.809 374.786L439.849 372.941Z" fill="#EDEDED"/>
<path d="M465.482 372.941L463.443 371.095L461.404 372.941L463.443 374.786L465.482 372.941Z" fill="#EDEDED"/>
<path d="M4.07827 396.134L2.03914 394.289L0 396.134L2.03914 397.979L4.07827 396.134Z" fill="#EDEDED"/>
<path d="M29.7119 396.134L27.6728 394.289L25.6337 396.134L27.6728 397.979L29.7119 396.134Z" fill="#EDEDED"/>
<path d="M55.3453 396.134L53.3062 394.289L51.267 396.134L53.3062 397.979L55.3453 396.134Z" fill="#EDEDED"/>
<path d="M80.979 396.134L78.9398 394.289L76.9007 396.134L78.9398 397.979L80.979 396.134Z" fill="#EDEDED"/>
<path d="M106.613 396.134L104.574 394.289L102.534 396.134L104.574 397.979L106.613 396.134Z" fill="#EDEDED"/>
<path d="M132.246 396.134L130.207 394.289L128.168 396.134L130.207 397.979L132.246 396.134Z" fill="#EDEDED"/>
<path d="M157.88 396.134L155.841 394.289L153.801 396.134L155.841 397.979L157.88 396.134Z" fill="#EDEDED"/>
<path d="M183.513 396.134L181.474 394.289L179.435 396.134L181.474 397.979L183.513 396.134Z" fill="#EDEDED"/>
<path d="M209.147 396.134L207.108 394.289L205.068 396.134L207.108 397.979L209.147 396.134Z" fill="#EDEDED"/>
<path d="M234.78 396.134L232.741 394.289L230.702 396.134L232.741 397.979L234.78 396.134Z" fill="#EDEDED"/>
<path d="M260.414 396.134L258.375 394.289L256.335 396.134L258.375 397.979L260.414 396.134Z" fill="#EDEDED"/>
<path d="M286.047 396.134L284.008 394.289L281.969 396.134L284.008 397.979L286.047 396.134Z" fill="#EDEDED"/>
<path d="M311.681 396.134L309.642 394.289L307.603 396.134L309.642 397.979L311.681 396.134Z" fill="#EDEDED"/>
<path d="M337.314 396.134L335.275 394.289L333.236 396.134L335.275 397.979L337.314 396.134Z" fill="#EDEDED"/>
<path d="M362.948 396.134L360.909 394.289L358.87 396.134L360.909 397.979L362.948 396.134Z" fill="#EDEDED"/>
<path d="M388.581 396.134L386.542 394.289L384.503 396.134L386.542 397.979L388.581 396.134Z" fill="#EDEDED"/>
<path d="M414.215 396.134L412.176 394.289L410.137 396.134L412.176 397.979L414.215 396.134Z" fill="#EDEDED"/>
<path d="M439.849 396.134L437.809 394.289L435.77 396.134L437.809 397.979L439.849 396.134Z" fill="#EDEDED"/>
<path d="M465.482 396.134L463.443 394.289L461.404 396.134L463.443 397.979L465.482 396.134Z" fill="#EDEDED"/>
<path d="M4.07827 419.328L2.03914 417.483L0 419.328L2.03914 421.173L4.07827 419.328Z" fill="#EDEDED"/>
<path d="M29.7119 419.328L27.6728 417.483L25.6337 419.328L27.6728 421.173L29.7119 419.328Z" fill="#EDEDED"/>
<path d="M55.3453 419.328L53.3062 417.483L51.267 419.328L53.3062 421.173L55.3453 419.328Z" fill="#EDEDED"/>
<path d="M80.979 419.328L78.9398 417.483L76.9007 419.328L78.9398 421.173L80.979 419.328Z" fill="#EDEDED"/>
<path d="M106.613 419.328L104.574 417.483L102.534 419.328L104.574 421.173L106.613 419.328Z" fill="#EDEDED"/>
<path d="M132.246 419.328L130.207 417.483L128.168 419.328L130.207 421.173L132.246 419.328Z" fill="#EDEDED"/>
<path d="M157.88 419.328L155.841 417.483L153.801 419.328L155.841 421.173L157.88 419.328Z" fill="#EDEDED"/>
<path d="M183.513 419.328L181.474 417.483L179.435 419.328L181.474 421.173L183.513 419.328Z" fill="#EDEDED"/>
<path d="M209.147 419.328L207.108 417.483L205.068 419.328L207.108 421.173L209.147 419.328Z" fill="#EDEDED"/>
<path d="M234.78 419.328L232.741 417.483L230.702 419.328L232.741 421.173L234.78 419.328Z" fill="#EDEDED"/>
<path d="M260.414 419.328L258.375 417.483L256.335 419.328L258.375 421.173L260.414 419.328Z" fill="#EDEDED"/>
<path d="M286.047 419.328L284.008 417.483L281.969 419.328L284.008 421.173L286.047 419.328Z" fill="#EDEDED"/>
<path d="M311.681 419.328L309.642 417.483L307.603 419.328L309.642 421.173L311.681 419.328Z" fill="#EDEDED"/>
<path d="M337.314 419.328L335.275 417.483L333.236 419.328L335.275 421.173L337.314 419.328Z" fill="#EDEDED"/>
<path d="M362.948 419.328L360.909 417.483L358.87 419.328L360.909 421.173L362.948 419.328Z" fill="#EDEDED"/>
<path d="M388.581 419.328L386.542 417.483L384.503 419.328L386.542 421.173L388.581 419.328Z" fill="#EDEDED"/>
<path d="M414.215 419.328L412.176 417.483L410.137 419.328L412.176 421.173L414.215 419.328Z" fill="#EDEDED"/>
<path d="M439.849 419.328L437.809 417.483L435.77 419.328L437.809 421.173L439.849 419.328Z" fill="#EDEDED"/>
<path d="M465.482 419.328L463.443 417.483L461.404 419.328L463.443 421.173L465.482 419.328Z" fill="#EDEDED"/>
<path d="M260.417 1.84503L258.378 0L256.339 1.84503L258.378 3.69006L260.417 1.84503Z" fill="#EDEDED"/>
<path d="M286.051 1.84503L284.012 0L281.973 1.84503L284.012 3.69006L286.051 1.84503Z" fill="#EDEDED"/>
<path d="M311.684 1.84503L309.645 0L307.606 1.84503L309.645 3.69006L311.684 1.84503Z" fill="#EDEDED"/>
<path d="M337.318 1.84503L335.279 0L333.24 1.84503L335.279 3.69006L337.318 1.84503Z" fill="#EDEDED"/>
<path d="M362.952 1.84503L360.912 0L358.873 1.84503L360.912 3.69006L362.952 1.84503Z" fill="#EDEDED"/>
<path d="M388.585 1.84503L386.546 0L384.507 1.84503L386.546 3.69006L388.585 1.84503Z" fill="#EDEDED"/>
<path d="M414.219 1.84503L412.179 0L410.14 1.84503L412.179 3.69006L414.219 1.84503Z" fill="#EDEDED"/>
<path d="M439.852 1.84503L437.813 0L435.774 1.84503L437.813 3.69006L439.852 1.84503Z" fill="#EDEDED"/>
<path d="M465.486 1.84503L463.446 0L461.407 1.84503L463.446 3.69006L465.486 1.84503Z" fill="#EDEDED"/>
<path d="M491.119 1.84503L489.08 0L487.041 1.84503L489.08 3.69006L491.119 1.84503Z" fill="#EDEDED"/>
<path d="M516.753 1.84503L514.714 0L512.674 1.84503L514.714 3.69006L516.753 1.84503Z" fill="#EDEDED"/>
<path d="M542.386 1.84503L540.347 0L538.308 1.84503L540.347 3.69006L542.386 1.84503Z" fill="#EDEDED"/>
<path d="M568.02 1.84503L565.981 0L563.942 1.84503L565.981 3.69006L568.02 1.84503Z" fill="#EDEDED"/>
<path d="M593.653 1.84503L591.614 0L589.575 1.84503L591.614 3.69006L593.653 1.84503Z" fill="#EDEDED"/>
<path d="M619.287 1.84503L617.248 0L615.209 1.84503L617.248 3.69006L619.287 1.84503Z" fill="#EDEDED"/>
<path d="M644.92 1.84503L642.881 0L640.842 1.84503L642.881 3.69006L644.92 1.84503Z" fill="#EDEDED"/>
<path d="M670.554 1.84503L668.515 0L666.476 1.84503L668.515 3.69006L670.554 1.84503Z" fill="#EDEDED"/>
<path d="M696.187 1.84503L694.148 0L692.109 1.84503L694.148 3.69006L696.187 1.84503Z" fill="#EDEDED"/>
<path d="M721.821 1.84503L719.782 0L717.743 1.84503L719.782 3.69006L721.821 1.84503Z" fill="#EDEDED"/>
<path d="M260.417 25.0386L258.378 23.1935L256.339 25.0386L258.378 26.8836L260.417 25.0386Z" fill="#EDEDED"/>
<path d="M286.051 25.0386L284.012 23.1935L281.973 25.0386L284.012 26.8836L286.051 25.0386Z" fill="#EDEDED"/>
<path d="M311.684 25.0386L309.645 23.1935L307.606 25.0386L309.645 26.8836L311.684 25.0386Z" fill="#EDEDED"/>
<path d="M337.318 25.0386L335.279 23.1935L333.24 25.0386L335.279 26.8836L337.318 25.0386Z" fill="#EDEDED"/>
<path d="M362.952 25.0386L360.912 23.1935L358.873 25.0386L360.912 26.8836L362.952 25.0386Z" fill="#EDEDED"/>
<path d="M388.585 25.0386L386.546 23.1935L384.507 25.0386L386.546 26.8836L388.585 25.0386Z" fill="#EDEDED"/>
<path d="M414.219 25.0386L412.179 23.1935L410.14 25.0386L412.179 26.8836L414.219 25.0386Z" fill="#EDEDED"/>
<path d="M439.852 25.0386L437.813 23.1935L435.774 25.0386L437.813 26.8836L439.852 25.0386Z" fill="#EDEDED"/>
<path d="M465.486 25.0386L463.446 23.1935L461.407 25.0386L463.446 26.8836L465.486 25.0386Z" fill="#EDEDED"/>
<path d="M491.119 25.0386L489.08 23.1935L487.041 25.0386L489.08 26.8836L491.119 25.0386Z" fill="#EDEDED"/>
<path d="M516.753 25.0386L514.714 23.1935L512.674 25.0386L514.714 26.8836L516.753 25.0386Z" fill="#EDEDED"/>
<path d="M542.386 25.0386L540.347 23.1935L538.308 25.0386L540.347 26.8836L542.386 25.0386Z" fill="#EDEDED"/>
<path d="M568.02 25.0386L565.981 23.1935L563.942 25.0386L565.981 26.8836L568.02 25.0386Z" fill="#EDEDED"/>
<path d="M593.653 25.0386L591.614 23.1935L589.575 25.0386L591.614 26.8836L593.653 25.0386Z" fill="#EDEDED"/>
<path d="M619.287 25.0386L617.248 23.1935L615.209 25.0386L617.248 26.8836L619.287 25.0386Z" fill="#EDEDED"/>
<path d="M644.92 25.0386L642.881 23.1935L640.842 25.0386L642.881 26.8836L644.92 25.0386Z" fill="#EDEDED"/>
<path d="M670.554 25.0386L668.515 23.1935L666.476 25.0386L668.515 26.8836L670.554 25.0386Z" fill="#EDEDED"/>
<path d="M696.187 25.0386L694.148 23.1935L692.109 25.0386L694.148 26.8836L696.187 25.0386Z" fill="#EDEDED"/>
<path d="M721.821 25.0386L719.782 23.1935L717.743 25.0386L719.782 26.8836L721.821 25.0386Z" fill="#EDEDED"/>
<path d="M260.417 48.2321L258.378 46.3871L256.339 48.2321L258.378 50.0772L260.417 48.2321Z" fill="#EDEDED"/>
<path d="M286.051 48.2321L284.012 46.3871L281.973 48.2321L284.012 50.0772L286.051 48.2321Z" fill="#EDEDED"/>
<path d="M311.684 48.2321L309.645 46.3871L307.606 48.2321L309.645 50.0772L311.684 48.2321Z" fill="#EDEDED"/>
<path d="M337.318 48.2321L335.279 46.3871L333.24 48.2321L335.279 50.0772L337.318 48.2321Z" fill="#EDEDED"/>
<path d="M362.952 48.2321L360.912 46.3871L358.873 48.2321L360.912 50.0772L362.952 48.2321Z" fill="#EDEDED"/>
<path d="M388.585 48.2321L386.546 46.3871L384.507 48.2321L386.546 50.0772L388.585 48.2321Z" fill="#EDEDED"/>
<path d="M414.219 48.2321L412.179 46.3871L410.14 48.2321L412.179 50.0772L414.219 48.2321Z" fill="#EDEDED"/>
<path d="M439.852 48.2321L437.813 46.3871L435.774 48.2321L437.813 50.0772L439.852 48.2321Z" fill="#EDEDED"/>
<path d="M465.486 48.2321L463.446 46.3871L461.407 48.2321L463.446 50.0772L465.486 48.2321Z" fill="#EDEDED"/>
<path d="M491.119 48.2321L489.08 46.3871L487.041 48.2321L489.08 50.0772L491.119 48.2321Z" fill="#EDEDED"/>
<path d="M516.753 48.2321L514.714 46.3871L512.674 48.2321L514.714 50.0772L516.753 48.2321Z" fill="#EDEDED"/>
<path d="M542.386 48.2321L540.347 46.3871L538.308 48.2321L540.347 50.0772L542.386 48.2321Z" fill="#EDEDED"/>
<path d="M568.02 48.2321L565.981 46.3871L563.942 48.2321L565.981 50.0772L568.02 48.2321Z" fill="#EDEDED"/>
<path d="M593.653 48.2321L591.614 46.3871L589.575 48.2321L591.614 50.0772L593.653 48.2321Z" fill="#EDEDED"/>
<path d="M619.287 48.2321L617.248 46.3871L615.209 48.2321L617.248 50.0772L619.287 48.2321Z" fill="#EDEDED"/>
<path d="M644.92 48.2321L642.881 46.3871L640.842 48.2321L642.881 50.0772L644.92 48.2321Z" fill="#EDEDED"/>
<path d="M670.554 48.2321L668.515 46.3871L666.476 48.2321L668.515 50.0772L670.554 48.2321Z" fill="#EDEDED"/>
<path d="M696.187 48.2321L694.148 46.3871L692.109 48.2321L694.148 50.0772L696.187 48.2321Z" fill="#EDEDED"/>
<path d="M721.821 48.2321L719.782 46.3871L717.743 48.2321L719.782 50.0772L721.821 48.2321Z" fill="#EDEDED"/>
<path d="M260.417 71.4257L258.378 69.5807L256.339 71.4257L258.378 73.2707L260.417 71.4257Z" fill="#EDEDED"/>
<path d="M286.051 71.4257L284.012 69.5807L281.973 71.4257L284.012 73.2707L286.051 71.4257Z" fill="#EDEDED"/>
<path d="M311.684 71.4257L309.645 69.5807L307.606 71.4257L309.645 73.2707L311.684 71.4257Z" fill="#EDEDED"/>
<path d="M337.318 71.4257L335.279 69.5807L333.24 71.4257L335.279 73.2707L337.318 71.4257Z" fill="#EDEDED"/>
<path d="M362.952 71.4257L360.912 69.5807L358.873 71.4257L360.912 73.2707L362.952 71.4257Z" fill="#EDEDED"/>
<path d="M388.585 71.4257L386.546 69.5807L384.507 71.4257L386.546 73.2707L388.585 71.4257Z" fill="#EDEDED"/>
<path d="M414.219 71.4257L412.179 69.5807L410.14 71.4257L412.179 73.2707L414.219 71.4257Z" fill="#EDEDED"/>
<path d="M439.852 71.4257L437.813 69.5807L435.774 71.4257L437.813 73.2707L439.852 71.4257Z" fill="#EDEDED"/>
<path d="M465.486 71.4257L463.446 69.5807L461.407 71.4257L463.446 73.2707L465.486 71.4257Z" fill="#EDEDED"/>
<path d="M491.119 71.4257L489.08 69.5807L487.041 71.4257L489.08 73.2707L491.119 71.4257Z" fill="#EDEDED"/>
<path d="M516.753 71.4257L514.714 69.5807L512.674 71.4257L514.714 73.2707L516.753 71.4257Z" fill="#EDEDED"/>
<path d="M542.386 71.4257L540.347 69.5807L538.308 71.4257L540.347 73.2707L542.386 71.4257Z" fill="#EDEDED"/>
<path d="M568.02 71.4257L565.981 69.5807L563.942 71.4257L565.981 73.2707L568.02 71.4257Z" fill="#EDEDED"/>
<path d="M593.653 71.4257L591.614 69.5807L589.575 71.4257L591.614 73.2707L593.653 71.4257Z" fill="#EDEDED"/>
<path d="M619.287 71.4257L617.248 69.5807L615.209 71.4257L617.248 73.2707L619.287 71.4257Z" fill="#EDEDED"/>
<path d="M644.92 71.4257L642.881 69.5807L640.842 71.4257L642.881 73.2707L644.92 71.4257Z" fill="#EDEDED"/>
<path d="M670.554 71.4257L668.515 69.5807L666.476 71.4257L668.515 73.2707L670.554 71.4257Z" fill="#EDEDED"/>
<path d="M696.187 71.4257L694.148 69.5807L692.109 71.4257L694.148 73.2707L696.187 71.4257Z" fill="#EDEDED"/>
<path d="M721.821 71.4257L719.782 69.5807L717.743 71.4257L719.782 73.2707L721.821 71.4257Z" fill="#EDEDED"/>
<path d="M260.417 94.619L258.378 92.7739L256.339 94.619L258.378 96.464L260.417 94.619Z" fill="#EDEDED"/>
<path d="M286.051 94.619L284.012 92.7739L281.973 94.619L284.012 96.464L286.051 94.619Z" fill="#EDEDED"/>
<path d="M311.684 94.619L309.645 92.7739L307.606 94.619L309.645 96.464L311.684 94.619Z" fill="#EDEDED"/>
<path d="M337.318 94.619L335.279 92.7739L333.24 94.619L335.279 96.464L337.318 94.619Z" fill="#EDEDED"/>
<path d="M362.952 94.619L360.912 92.7739L358.873 94.619L360.912 96.464L362.952 94.619Z" fill="#EDEDED"/>
<path d="M388.585 94.619L386.546 92.7739L384.507 94.619L386.546 96.464L388.585 94.619Z" fill="#EDEDED"/>
<path d="M414.219 94.619L412.179 92.7739L410.14 94.619L412.179 96.464L414.219 94.619Z" fill="#EDEDED"/>
<path d="M439.852 94.619L437.813 92.7739L435.774 94.619L437.813 96.464L439.852 94.619Z" fill="#EDEDED"/>
<path d="M465.486 94.619L463.446 92.7739L461.407 94.619L463.446 96.464L465.486 94.619Z" fill="#EDEDED"/>
<path d="M491.119 94.619L489.08 92.7739L487.041 94.619L489.08 96.464L491.119 94.619Z" fill="#EDEDED"/>
<path d="M516.753 94.619L514.714 92.7739L512.674 94.619L514.714 96.464L516.753 94.619Z" fill="#EDEDED"/>
<path d="M542.386 94.619L540.347 92.7739L538.308 94.619L540.347 96.464L542.386 94.619Z" fill="#EDEDED"/>
<path d="M568.02 94.619L565.981 92.7739L563.942 94.619L565.981 96.464L568.02 94.619Z" fill="#EDEDED"/>
<path d="M593.653 94.619L591.614 92.7739L589.575 94.619L591.614 96.464L593.653 94.619Z" fill="#EDEDED"/>
<path d="M619.287 94.619L617.248 92.7739L615.209 94.619L617.248 96.464L619.287 94.619Z" fill="#EDEDED"/>
<path d="M644.92 94.619L642.881 92.7739L640.842 94.619L642.881 96.464L644.92 94.619Z" fill="#EDEDED"/>
<path d="M670.554 94.619L668.515 92.7739L666.476 94.619L668.515 96.464L670.554 94.619Z" fill="#EDEDED"/>
<path d="M696.187 94.619L694.148 92.7739L692.109 94.619L694.148 96.464L696.187 94.619Z" fill="#EDEDED"/>
<path d="M721.821 94.619L719.782 92.7739L717.743 94.619L719.782 96.464L721.821 94.619Z" fill="#EDEDED"/>
<path d="M260.417 117.813L258.378 115.967L256.339 117.813L258.378 119.658L260.417 117.813Z" fill="#EDEDED"/>
<path d="M286.051 117.813L284.012 115.967L281.973 117.813L284.012 119.658L286.051 117.813Z" fill="#EDEDED"/>
<path d="M311.684 117.813L309.645 115.967L307.606 117.813L309.645 119.658L311.684 117.813Z" fill="#EDEDED"/>
<path d="M337.318 117.813L335.279 115.967L333.24 117.813L335.279 119.658L337.318 117.813Z" fill="#EDEDED"/>
<path d="M362.952 117.813L360.912 115.967L358.873 117.813L360.912 119.658L362.952 117.813Z" fill="#EDEDED"/>
<path d="M388.585 117.813L386.546 115.967L384.507 117.813L386.546 119.658L388.585 117.813Z" fill="#EDEDED"/>
<path d="M414.219 117.813L412.179 115.967L410.14 117.813L412.179 119.658L414.219 117.813Z" fill="#EDEDED"/>
<path d="M439.852 117.813L437.813 115.967L435.774 117.813L437.813 119.658L439.852 117.813Z" fill="#EDEDED"/>
<path d="M465.486 117.813L463.446 115.967L461.407 117.813L463.446 119.658L465.486 117.813Z" fill="#EDEDED"/>
<path d="M491.119 117.813L489.08 115.967L487.041 117.813L489.08 119.658L491.119 117.813Z" fill="#EDEDED"/>
<path d="M516.753 117.813L514.714 115.967L512.674 117.813L514.714 119.658L516.753 117.813Z" fill="#EDEDED"/>
<path d="M542.386 117.813L540.347 115.967L538.308 117.813L540.347 119.658L542.386 117.813Z" fill="#EDEDED"/>
<path d="M568.02 117.813L565.981 115.967L563.942 117.813L565.981 119.658L568.02 117.813Z" fill="#EDEDED"/>
<path d="M593.653 117.813L591.614 115.967L589.575 117.813L591.614 119.658L593.653 117.813Z" fill="#EDEDED"/>
<path d="M619.287 117.813L617.248 115.967L615.209 117.813L617.248 119.658L619.287 117.813Z" fill="#EDEDED"/>
<path d="M644.92 117.813L642.881 115.967L640.842 117.813L642.881 119.658L644.92 117.813Z" fill="#EDEDED"/>
<path d="M670.554 117.813L668.515 115.967L666.476 117.813L668.515 119.658L670.554 117.813Z" fill="#EDEDED"/>
<path d="M696.187 117.813L694.148 115.967L692.109 117.813L694.148 119.658L696.187 117.813Z" fill="#EDEDED"/>
<path d="M721.821 117.813L719.782 115.967L717.743 117.813L719.782 119.658L721.821 117.813Z" fill="#EDEDED"/>
<path d="M260.417 141.006L258.378 139.161L256.339 141.006L258.378 142.851L260.417 141.006Z" fill="#EDEDED"/>
<path d="M286.051 141.006L284.012 139.161L281.973 141.006L284.012 142.851L286.051 141.006Z" fill="#EDEDED"/>
<path d="M311.684 141.006L309.645 139.161L307.606 141.006L309.645 142.851L311.684 141.006Z" fill="#EDEDED"/>
<path d="M337.318 141.006L335.279 139.161L333.24 141.006L335.279 142.851L337.318 141.006Z" fill="#EDEDED"/>
<path d="M362.952 141.006L360.912 139.161L358.873 141.006L360.912 142.851L362.952 141.006Z" fill="#EDEDED"/>
<path d="M388.585 141.006L386.546 139.161L384.507 141.006L386.546 142.851L388.585 141.006Z" fill="#EDEDED"/>
<path d="M414.219 141.006L412.179 139.161L410.14 141.006L412.179 142.851L414.219 141.006Z" fill="#EDEDED"/>
<path d="M439.852 141.006L437.813 139.161L435.774 141.006L437.813 142.851L439.852 141.006Z" fill="#EDEDED"/>
<path d="M465.486 141.006L463.446 139.161L461.407 141.006L463.446 142.851L465.486 141.006Z" fill="#EDEDED"/>
<path d="M491.119 141.006L489.08 139.161L487.041 141.006L489.08 142.851L491.119 141.006Z" fill="#EDEDED"/>
<path d="M516.753 141.006L514.714 139.161L512.674 141.006L514.714 142.851L516.753 141.006Z" fill="#EDEDED"/>
<path d="M542.386 141.006L540.347 139.161L538.308 141.006L540.347 142.851L542.386 141.006Z" fill="#EDEDED"/>
<path d="M568.02 141.006L565.981 139.161L563.942 141.006L565.981 142.851L568.02 141.006Z" fill="#EDEDED"/>
<path d="M593.653 141.006L591.614 139.161L589.575 141.006L591.614 142.851L593.653 141.006Z" fill="#EDEDED"/>
<path d="M619.287 141.006L617.248 139.161L615.209 141.006L617.248 142.851L619.287 141.006Z" fill="#EDEDED"/>
<path d="M644.92 141.006L642.881 139.161L640.842 141.006L642.881 142.851L644.92 141.006Z" fill="#EDEDED"/>
<path d="M670.554 141.006L668.515 139.161L666.476 141.006L668.515 142.851L670.554 141.006Z" fill="#EDEDED"/>
<path d="M696.187 141.006L694.148 139.161L692.109 141.006L694.148 142.851L696.187 141.006Z" fill="#EDEDED"/>
<path d="M721.821 141.006L719.782 139.161L717.743 141.006L719.782 142.851L721.821 141.006Z" fill="#EDEDED"/>
<path d="M260.417 164.199L258.378 162.354L256.339 164.199L258.378 166.044L260.417 164.199Z" fill="#EDEDED"/>
<path d="M286.051 164.199L284.012 162.354L281.973 164.199L284.012 166.044L286.051 164.199Z" fill="#EDEDED"/>
<path d="M311.684 164.199L309.645 162.354L307.606 164.199L309.645 166.044L311.684 164.199Z" fill="#EDEDED"/>
<path d="M337.318 164.199L335.279 162.354L333.24 164.199L335.279 166.044L337.318 164.199Z" fill="#EDEDED"/>
<path d="M362.952 164.199L360.912 162.354L358.873 164.199L360.912 166.044L362.952 164.199Z" fill="#EDEDED"/>
<path d="M388.585 164.199L386.546 162.354L384.507 164.199L386.546 166.044L388.585 164.199Z" fill="#EDEDED"/>
<path d="M414.219 164.199L412.179 162.354L410.14 164.199L412.179 166.044L414.219 164.199Z" fill="#EDEDED"/>
<path d="M439.852 164.199L437.813 162.354L435.774 164.199L437.813 166.044L439.852 164.199Z" fill="#EDEDED"/>
<path d="M465.486 164.199L463.446 162.354L461.407 164.199L463.446 166.044L465.486 164.199Z" fill="#EDEDED"/>
<path d="M491.119 164.199L489.08 162.354L487.041 164.199L489.08 166.044L491.119 164.199Z" fill="#EDEDED"/>
<path d="M516.753 164.199L514.714 162.354L512.674 164.199L514.714 166.044L516.753 164.199Z" fill="#EDEDED"/>
<path d="M542.386 164.199L540.347 162.354L538.308 164.199L540.347 166.044L542.386 164.199Z" fill="#EDEDED"/>
<path d="M568.02 164.199L565.981 162.354L563.942 164.199L565.981 166.044L568.02 164.199Z" fill="#EDEDED"/>
<path d="M593.653 164.199L591.614 162.354L589.575 164.199L591.614 166.044L593.653 164.199Z" fill="#EDEDED"/>
<path d="M619.287 164.199L617.248 162.354L615.209 164.199L617.248 166.044L619.287 164.199Z" fill="#EDEDED"/>
<path d="M644.92 164.199L642.881 162.354L640.842 164.199L642.881 166.044L644.92 164.199Z" fill="#EDEDED"/>
<path d="M670.554 164.199L668.515 162.354L666.476 164.199L668.515 166.044L670.554 164.199Z" fill="#EDEDED"/>
<path d="M696.187 164.199L694.148 162.354L692.109 164.199L694.148 166.044L696.187 164.199Z" fill="#EDEDED"/>
<path d="M721.821 164.199L719.782 162.354L717.743 164.199L719.782 166.044L721.821 164.199Z" fill="#EDEDED"/>
<path d="M260.417 187.393L258.378 185.548L256.339 187.393L258.378 189.238L260.417 187.393Z" fill="#EDEDED"/>
<path d="M286.051 187.393L284.012 185.548L281.973 187.393L284.012 189.238L286.051 187.393Z" fill="#EDEDED"/>
<path d="M311.684 187.393L309.645 185.548L307.606 187.393L309.645 189.238L311.684 187.393Z" fill="#EDEDED"/>
<path d="M337.318 187.393L335.279 185.548L333.24 187.393L335.279 189.238L337.318 187.393Z" fill="#EDEDED"/>
<path d="M362.952 187.393L360.912 185.548L358.873 187.393L360.912 189.238L362.952 187.393Z" fill="#EDEDED"/>
<path d="M388.585 187.393L386.546 185.548L384.507 187.393L386.546 189.238L388.585 187.393Z" fill="#EDEDED"/>
<path d="M414.219 187.393L412.179 185.548L410.14 187.393L412.179 189.238L414.219 187.393Z" fill="#EDEDED"/>
<path d="M439.852 187.393L437.813 185.548L435.774 187.393L437.813 189.238L439.852 187.393Z" fill="#EDEDED"/>
<path d="M465.486 187.393L463.446 185.548L461.407 187.393L463.446 189.238L465.486 187.393Z" fill="#EDEDED"/>
<path d="M491.119 187.393L489.08 185.548L487.041 187.393L489.08 189.238L491.119 187.393Z" fill="#EDEDED"/>
<path d="M516.753 187.393L514.714 185.548L512.674 187.393L514.714 189.238L516.753 187.393Z" fill="#EDEDED"/>
<path d="M542.386 187.393L540.347 185.548L538.308 187.393L540.347 189.238L542.386 187.393Z" fill="#EDEDED"/>
<path d="M568.02 187.393L565.981 185.548L563.942 187.393L565.981 189.238L568.02 187.393Z" fill="#EDEDED"/>
<path d="M593.653 187.393L591.614 185.548L589.575 187.393L591.614 189.238L593.653 187.393Z" fill="#EDEDED"/>
<path d="M619.287 187.393L617.248 185.548L615.209 187.393L617.248 189.238L619.287 187.393Z" fill="#EDEDED"/>
<path d="M644.92 187.393L642.881 185.548L640.842 187.393L642.881 189.238L644.92 187.393Z" fill="#EDEDED"/>
<path d="M670.554 187.393L668.515 185.548L666.476 187.393L668.515 189.238L670.554 187.393Z" fill="#EDEDED"/>
<path d="M696.187 187.393L694.148 185.548L692.109 187.393L694.148 189.238L696.187 187.393Z" fill="#EDEDED"/>
<path d="M721.821 187.393L719.782 185.548L717.743 187.393L719.782 189.238L721.821 187.393Z" fill="#EDEDED"/>
<path d="M260.417 210.586L258.378 208.741L256.339 210.586L258.378 212.432L260.417 210.586Z" fill="#EDEDED"/>
<path d="M286.051 210.586L284.012 208.741L281.973 210.586L284.012 212.432L286.051 210.586Z" fill="#EDEDED"/>
<path d="M311.684 210.586L309.645 208.741L307.606 210.586L309.645 212.432L311.684 210.586Z" fill="#EDEDED"/>
<path d="M337.318 210.586L335.279 208.741L333.24 210.586L335.279 212.432L337.318 210.586Z" fill="#EDEDED"/>
<path d="M362.952 210.586L360.912 208.741L358.873 210.586L360.912 212.432L362.952 210.586Z" fill="#EDEDED"/>
<path d="M388.585 210.586L386.546 208.741L384.507 210.586L386.546 212.432L388.585 210.586Z" fill="#EDEDED"/>
<path d="M414.219 210.586L412.179 208.741L410.14 210.586L412.179 212.432L414.219 210.586Z" fill="#EDEDED"/>
<path d="M439.852 210.586L437.813 208.741L435.774 210.586L437.813 212.432L439.852 210.586Z" fill="#EDEDED"/>
<path d="M465.486 210.586L463.446 208.741L461.407 210.586L463.446 212.432L465.486 210.586Z" fill="#EDEDED"/>
<path d="M491.119 210.586L489.08 208.741L487.041 210.586L489.08 212.432L491.119 210.586Z" fill="#EDEDED"/>
<path d="M516.753 210.586L514.714 208.741L512.674 210.586L514.714 212.432L516.753 210.586Z" fill="#EDEDED"/>
<path d="M542.386 210.586L540.347 208.741L538.308 210.586L540.347 212.432L542.386 210.586Z" fill="#EDEDED"/>
<path d="M568.02 210.586L565.981 208.741L563.942 210.586L565.981 212.432L568.02 210.586Z" fill="#EDEDED"/>
<path d="M593.653 210.586L591.614 208.741L589.575 210.586L591.614 212.432L593.653 210.586Z" fill="#EDEDED"/>
<path d="M619.287 210.586L617.248 208.741L615.209 210.586L617.248 212.432L619.287 210.586Z" fill="#EDEDED"/>
<path d="M644.92 210.586L642.881 208.741L640.842 210.586L642.881 212.432L644.92 210.586Z" fill="#EDEDED"/>
<path d="M670.554 210.586L668.515 208.741L666.476 210.586L668.515 212.432L670.554 210.586Z" fill="#EDEDED"/>
<path d="M696.187 210.586L694.148 208.741L692.109 210.586L694.148 212.432L696.187 210.586Z" fill="#EDEDED"/>
<path d="M721.821 210.586L719.782 208.741L717.743 210.586L719.782 212.432L721.821 210.586Z" fill="#EDEDED"/>
<path d="M260.417 233.78L258.378 231.935L256.339 233.78L258.378 235.625L260.417 233.78Z" fill="#EDEDED"/>
<path d="M286.051 233.78L284.012 231.935L281.973 233.78L284.012 235.625L286.051 233.78Z" fill="#EDEDED"/>
<path d="M311.684 233.78L309.645 231.935L307.606 233.78L309.645 235.625L311.684 233.78Z" fill="#EDEDED"/>
<path d="M337.318 233.78L335.279 231.935L333.24 233.78L335.279 235.625L337.318 233.78Z" fill="#EDEDED"/>
<path d="M362.952 233.78L360.912 231.935L358.873 233.78L360.912 235.625L362.952 233.78Z" fill="#EDEDED"/>
<path d="M388.585 233.78L386.546 231.935L384.507 233.78L386.546 235.625L388.585 233.78Z" fill="#EDEDED"/>
<path d="M414.219 233.78L412.179 231.935L410.14 233.78L412.179 235.625L414.219 233.78Z" fill="#EDEDED"/>
<path d="M439.852 233.78L437.813 231.935L435.774 233.78L437.813 235.625L439.852 233.78Z" fill="#EDEDED"/>
<path d="M465.486 233.78L463.446 231.935L461.407 233.78L463.446 235.625L465.486 233.78Z" fill="#EDEDED"/>
<path d="M491.119 233.78L489.08 231.935L487.041 233.78L489.08 235.625L491.119 233.78Z" fill="#EDEDED"/>
<path d="M516.753 233.78L514.714 231.935L512.674 233.78L514.714 235.625L516.753 233.78Z" fill="#EDEDED"/>
<path d="M542.386 233.78L540.347 231.935L538.308 233.78L540.347 235.625L542.386 233.78Z" fill="#EDEDED"/>
<path d="M568.02 233.78L565.981 231.935L563.942 233.78L565.981 235.625L568.02 233.78Z" fill="#EDEDED"/>
<path d="M593.653 233.78L591.614 231.935L589.575 233.78L591.614 235.625L593.653 233.78Z" fill="#EDEDED"/>
<path d="M619.287 233.78L617.248 231.935L615.209 233.78L617.248 235.625L619.287 233.78Z" fill="#EDEDED"/>
<path d="M644.92 233.78L642.881 231.935L640.842 233.78L642.881 235.625L644.92 233.78Z" fill="#EDEDED"/>
<path d="M670.554 233.78L668.515 231.935L666.476 233.78L668.515 235.625L670.554 233.78Z" fill="#EDEDED"/>
<path d="M696.187 233.78L694.148 231.935L692.109 233.78L694.148 235.625L696.187 233.78Z" fill="#EDEDED"/>
<path d="M721.821 233.78L719.782 231.935L717.743 233.78L719.782 235.625L721.821 233.78Z" fill="#EDEDED"/>
<path d="M260.417 256.973L258.378 255.128L256.339 256.973L258.378 258.818L260.417 256.973Z" fill="#EDEDED"/>
<path d="M286.051 256.973L284.012 255.128L281.973 256.973L284.012 258.818L286.051 256.973Z" fill="#EDEDED"/>
<path d="M311.684 256.973L309.645 255.128L307.606 256.973L309.645 258.818L311.684 256.973Z" fill="#EDEDED"/>
<path d="M337.318 256.973L335.279 255.128L333.24 256.973L335.279 258.818L337.318 256.973Z" fill="#EDEDED"/>
<path d="M362.952 256.973L360.912 255.128L358.873 256.973L360.912 258.818L362.952 256.973Z" fill="#EDEDED"/>
<path d="M388.585 256.973L386.546 255.128L384.507 256.973L386.546 258.818L388.585 256.973Z" fill="#EDEDED"/>
<path d="M414.219 256.973L412.179 255.128L410.14 256.973L412.179 258.818L414.219 256.973Z" fill="#EDEDED"/>
<path d="M439.852 256.973L437.813 255.128L435.774 256.973L437.813 258.818L439.852 256.973Z" fill="#EDEDED"/>
<path d="M465.486 256.973L463.446 255.128L461.407 256.973L463.446 258.818L465.486 256.973Z" fill="#EDEDED"/>
<path d="M491.119 256.973L489.08 255.128L487.041 256.973L489.08 258.818L491.119 256.973Z" fill="#EDEDED"/>
<path d="M516.753 256.973L514.714 255.128L512.674 256.973L514.714 258.818L516.753 256.973Z" fill="#EDEDED"/>
<path d="M542.386 256.973L540.347 255.128L538.308 256.973L540.347 258.818L542.386 256.973Z" fill="#EDEDED"/>
<path d="M568.02 256.973L565.981 255.128L563.942 256.973L565.981 258.818L568.02 256.973Z" fill="#EDEDED"/>
<path d="M593.653 256.973L591.614 255.128L589.575 256.973L591.614 258.818L593.653 256.973Z" fill="#EDEDED"/>
<path d="M619.287 256.973L617.248 255.128L615.209 256.973L617.248 258.818L619.287 256.973Z" fill="#EDEDED"/>
<path d="M644.92 256.973L642.881 255.128L640.842 256.973L642.881 258.818L644.92 256.973Z" fill="#EDEDED"/>
<path d="M670.554 256.973L668.515 255.128L666.476 256.973L668.515 258.818L670.554 256.973Z" fill="#EDEDED"/>
<path d="M696.187 256.973L694.148 255.128L692.109 256.973L694.148 258.818L696.187 256.973Z" fill="#EDEDED"/>
<path d="M721.821 256.973L719.782 255.128L717.743 256.973L719.782 258.818L721.821 256.973Z" fill="#EDEDED"/>
<path d="M260.417 280.167L258.378 278.322L256.339 280.167L258.378 282.012L260.417 280.167Z" fill="#EDEDED"/>
<path d="M286.051 280.167L284.012 278.322L281.973 280.167L284.012 282.012L286.051 280.167Z" fill="#EDEDED"/>
<path d="M311.684 280.167L309.645 278.322L307.606 280.167L309.645 282.012L311.684 280.167Z" fill="#EDEDED"/>
<path d="M337.318 280.167L335.279 278.322L333.24 280.167L335.279 282.012L337.318 280.167Z" fill="#EDEDED"/>
<path d="M362.952 280.167L360.912 278.322L358.873 280.167L360.912 282.012L362.952 280.167Z" fill="#EDEDED"/>
<path d="M388.585 280.167L386.546 278.322L384.507 280.167L386.546 282.012L388.585 280.167Z" fill="#EDEDED"/>
<path d="M414.219 280.167L412.179 278.322L410.14 280.167L412.179 282.012L414.219 280.167Z" fill="#EDEDED"/>
<path d="M439.852 280.167L437.813 278.322L435.774 280.167L437.813 282.012L439.852 280.167Z" fill="#EDEDED"/>
<path d="M465.486 280.167L463.446 278.322L461.407 280.167L463.446 282.012L465.486 280.167Z" fill="#EDEDED"/>
<path d="M491.119 280.167L489.08 278.322L487.041 280.167L489.08 282.012L491.119 280.167Z" fill="#EDEDED"/>
<path d="M516.753 280.167L514.714 278.322L512.674 280.167L514.714 282.012L516.753 280.167Z" fill="#EDEDED"/>
<path d="M542.386 280.167L540.347 278.322L538.308 280.167L540.347 282.012L542.386 280.167Z" fill="#EDEDED"/>
<path d="M568.02 280.167L565.981 278.322L563.942 280.167L565.981 282.012L568.02 280.167Z" fill="#EDEDED"/>
<path d="M593.653 280.167L591.614 278.322L589.575 280.167L591.614 282.012L593.653 280.167Z" fill="#EDEDED"/>
<path d="M619.287 280.167L617.248 278.322L615.209 280.167L617.248 282.012L619.287 280.167Z" fill="#EDEDED"/>
<path d="M644.92 280.167L642.881 278.322L640.842 280.167L642.881 282.012L644.92 280.167Z" fill="#EDEDED"/>
<path d="M670.554 280.167L668.515 278.322L666.476 280.167L668.515 282.012L670.554 280.167Z" fill="#EDEDED"/>
<path d="M696.187 280.167L694.148 278.322L692.109 280.167L694.148 282.012L696.187 280.167Z" fill="#EDEDED"/>
<path d="M721.821 280.167L719.782 278.322L717.743 280.167L719.782 282.012L721.821 280.167Z" fill="#EDEDED"/>
<path d="M260.417 303.36L258.378 301.515L256.339 303.36L258.378 305.205L260.417 303.36Z" fill="#EDEDED"/>
<path d="M286.051 303.36L284.012 301.515L281.973 303.36L284.012 305.205L286.051 303.36Z" fill="#EDEDED"/>
<path d="M311.684 303.36L309.645 301.515L307.606 303.36L309.645 305.205L311.684 303.36Z" fill="#EDEDED"/>
<path d="M337.318 303.36L335.279 301.515L333.24 303.36L335.279 305.205L337.318 303.36Z" fill="#EDEDED"/>
<path d="M362.952 303.36L360.912 301.515L358.873 303.36L360.912 305.205L362.952 303.36Z" fill="#EDEDED"/>
<path d="M388.585 303.36L386.546 301.515L384.507 303.36L386.546 305.205L388.585 303.36Z" fill="#EDEDED"/>
<path d="M414.219 303.36L412.179 301.515L410.14 303.36L412.179 305.205L414.219 303.36Z" fill="#EDEDED"/>
<path d="M439.852 303.36L437.813 301.515L435.774 303.36L437.813 305.205L439.852 303.36Z" fill="#EDEDED"/>
<path d="M465.486 303.36L463.446 301.515L461.407 303.36L463.446 305.205L465.486 303.36Z" fill="#EDEDED"/>
<path d="M491.119 303.36L489.08 301.515L487.041 303.36L489.08 305.205L491.119 303.36Z" fill="#EDEDED"/>
<path d="M516.753 303.36L514.714 301.515L512.674 303.36L514.714 305.205L516.753 303.36Z" fill="#EDEDED"/>
<path d="M542.386 303.36L540.347 301.515L538.308 303.36L540.347 305.205L542.386 303.36Z" fill="#EDEDED"/>
<path d="M568.02 303.36L565.981 301.515L563.942 303.36L565.981 305.205L568.02 303.36Z" fill="#EDEDED"/>
<path d="M593.653 303.36L591.614 301.515L589.575 303.36L591.614 305.205L593.653 303.36Z" fill="#EDEDED"/>
<path d="M619.287 303.36L617.248 301.515L615.209 303.36L617.248 305.205L619.287 303.36Z" fill="#EDEDED"/>
<path d="M644.92 303.36L642.881 301.515L640.842 303.36L642.881 305.205L644.92 303.36Z" fill="#EDEDED"/>
<path d="M670.554 303.36L668.515 301.515L666.476 303.36L668.515 305.205L670.554 303.36Z" fill="#EDEDED"/>
<path d="M696.187 303.36L694.148 301.515L692.109 303.36L694.148 305.205L696.187 303.36Z" fill="#EDEDED"/>
<path d="M721.821 303.36L719.782 301.515L717.743 303.36L719.782 305.205L721.821 303.36Z" fill="#EDEDED"/>
<path d="M260.417 326.553L258.378 324.708L256.339 326.553L258.378 328.398L260.417 326.553Z" fill="#EDEDED"/>
<path d="M286.051 326.553L284.012 324.708L281.973 326.553L284.012 328.398L286.051 326.553Z" fill="#EDEDED"/>
<path d="M311.684 326.553L309.645 324.708L307.606 326.553L309.645 328.398L311.684 326.553Z" fill="#EDEDED"/>
<path d="M337.318 326.553L335.279 324.708L333.24 326.553L335.279 328.398L337.318 326.553Z" fill="#EDEDED"/>
<path d="M362.952 326.553L360.912 324.708L358.873 326.553L360.912 328.398L362.952 326.553Z" fill="#EDEDED"/>
<path d="M388.585 326.553L386.546 324.708L384.507 326.553L386.546 328.398L388.585 326.553Z" fill="#EDEDED"/>
<path d="M414.219 326.553L412.179 324.708L410.14 326.553L412.179 328.398L414.219 326.553Z" fill="#EDEDED"/>
<path d="M439.852 326.553L437.813 324.708L435.774 326.553L437.813 328.398L439.852 326.553Z" fill="#EDEDED"/>
<path d="M465.486 326.553L463.446 324.708L461.407 326.553L463.446 328.398L465.486 326.553Z" fill="#EDEDED"/>
<path d="M491.119 326.553L489.08 324.708L487.041 326.553L489.08 328.398L491.119 326.553Z" fill="#EDEDED"/>
<path d="M516.753 326.553L514.714 324.708L512.674 326.553L514.714 328.398L516.753 326.553Z" fill="#EDEDED"/>
<path d="M542.386 326.553L540.347 324.708L538.308 326.553L540.347 328.398L542.386 326.553Z" fill="#EDEDED"/>
<path d="M568.02 326.553L565.981 324.708L563.942 326.553L565.981 328.398L568.02 326.553Z" fill="#EDEDED"/>
<path d="M593.653 326.553L591.614 324.708L589.575 326.553L591.614 328.398L593.653 326.553Z" fill="#EDEDED"/>
<path d="M619.287 326.553L617.248 324.708L615.209 326.553L617.248 328.398L619.287 326.553Z" fill="#EDEDED"/>
<path d="M644.92 326.553L642.881 324.708L640.842 326.553L642.881 328.398L644.92 326.553Z" fill="#EDEDED"/>
<path d="M670.554 326.553L668.515 324.708L666.476 326.553L668.515 328.398L670.554 326.553Z" fill="#EDEDED"/>
<path d="M696.187 326.553L694.148 324.708L692.109 326.553L694.148 328.398L696.187 326.553Z" fill="#EDEDED"/>
<path d="M721.821 326.553L719.782 324.708L717.743 326.553L719.782 328.398L721.821 326.553Z" fill="#EDEDED"/>
<path d="M260.417 349.747L258.378 347.902L256.339 349.747L258.378 351.592L260.417 349.747Z" fill="#EDEDED"/>
<path d="M286.051 349.747L284.012 347.902L281.973 349.747L284.012 351.592L286.051 349.747Z" fill="#EDEDED"/>
<path d="M311.684 349.747L309.645 347.902L307.606 349.747L309.645 351.592L311.684 349.747Z" fill="#EDEDED"/>
<path d="M337.318 349.747L335.279 347.902L333.24 349.747L335.279 351.592L337.318 349.747Z" fill="#EDEDED"/>
<path d="M362.952 349.747L360.912 347.902L358.873 349.747L360.912 351.592L362.952 349.747Z" fill="#EDEDED"/>
<path d="M388.585 349.747L386.546 347.902L384.507 349.747L386.546 351.592L388.585 349.747Z" fill="#EDEDED"/>
<path d="M414.219 349.747L412.179 347.902L410.14 349.747L412.179 351.592L414.219 349.747Z" fill="#EDEDED"/>
<path d="M439.852 349.747L437.813 347.902L435.774 349.747L437.813 351.592L439.852 349.747Z" fill="#EDEDED"/>
<path d="M465.486 349.747L463.446 347.902L461.407 349.747L463.446 351.592L465.486 349.747Z" fill="#EDEDED"/>
<path d="M491.119 349.747L489.08 347.902L487.041 349.747L489.08 351.592L491.119 349.747Z" fill="#EDEDED"/>
<path d="M516.753 349.747L514.714 347.902L512.674 349.747L514.714 351.592L516.753 349.747Z" fill="#EDEDED"/>
<path d="M542.386 349.747L540.347 347.902L538.308 349.747L540.347 351.592L542.386 349.747Z" fill="#EDEDED"/>
<path d="M568.02 349.747L565.981 347.902L563.942 349.747L565.981 351.592L568.02 349.747Z" fill="#EDEDED"/>
<path d="M593.653 349.747L591.614 347.902L589.575 349.747L591.614 351.592L593.653 349.747Z" fill="#EDEDED"/>
<path d="M619.287 349.747L617.248 347.902L615.209 349.747L617.248 351.592L619.287 349.747Z" fill="#EDEDED"/>
<path d="M644.92 349.747L642.881 347.902L640.842 349.747L642.881 351.592L644.92 349.747Z" fill="#EDEDED"/>
<path d="M670.554 349.747L668.515 347.902L666.476 349.747L668.515 351.592L670.554 349.747Z" fill="#EDEDED"/>
<path d="M696.187 349.747L694.148 347.902L692.109 349.747L694.148 351.592L696.187 349.747Z" fill="#EDEDED"/>
<path d="M721.821 349.747L719.782 347.902L717.743 349.747L719.782 351.592L721.821 349.747Z" fill="#EDEDED"/>
<path d="M260.417 372.941L258.378 371.095L256.339 372.941L258.378 374.786L260.417 372.941Z" fill="#EDEDED"/>
<path d="M286.051 372.941L284.012 371.095L281.973 372.941L284.012 374.786L286.051 372.941Z" fill="#EDEDED"/>
<path d="M311.684 372.941L309.645 371.095L307.606 372.941L309.645 374.786L311.684 372.941Z" fill="#EDEDED"/>
<path d="M337.318 372.941L335.279 371.095L333.24 372.941L335.279 374.786L337.318 372.941Z" fill="#EDEDED"/>
<path d="M362.952 372.941L360.912 371.095L358.873 372.941L360.912 374.786L362.952 372.941Z" fill="#EDEDED"/>
<path d="M388.585 372.941L386.546 371.095L384.507 372.941L386.546 374.786L388.585 372.941Z" fill="#EDEDED"/>
<path d="M414.219 372.941L412.179 371.095L410.14 372.941L412.179 374.786L414.219 372.941Z" fill="#EDEDED"/>
<path d="M439.852 372.941L437.813 371.095L435.774 372.941L437.813 374.786L439.852 372.941Z" fill="#EDEDED"/>
<path d="M465.486 372.941L463.446 371.095L461.407 372.941L463.446 374.786L465.486 372.941Z" fill="#EDEDED"/>
<path d="M491.119 372.941L489.08 371.095L487.041 372.941L489.08 374.786L491.119 372.941Z" fill="#EDEDED"/>
<path d="M516.753 372.941L514.714 371.095L512.674 372.941L514.714 374.786L516.753 372.941Z" fill="#EDEDED"/>
<path d="M542.386 372.941L540.347 371.095L538.308 372.941L540.347 374.786L542.386 372.941Z" fill="#EDEDED"/>
<path d="M568.02 372.941L565.981 371.095L563.942 372.941L565.981 374.786L568.02 372.941Z" fill="#EDEDED"/>
<path d="M593.653 372.941L591.614 371.095L589.575 372.941L591.614 374.786L593.653 372.941Z" fill="#EDEDED"/>
<path d="M619.287 372.941L617.248 371.095L615.209 372.941L617.248 374.786L619.287 372.941Z" fill="#EDEDED"/>
<path d="M644.92 372.941L642.881 371.095L640.842 372.941L642.881 374.786L644.92 372.941Z" fill="#EDEDED"/>
<path d="M670.554 372.941L668.515 371.095L666.476 372.941L668.515 374.786L670.554 372.941Z" fill="#EDEDED"/>
<path d="M696.187 372.941L694.148 371.095L692.109 372.941L694.148 374.786L696.187 372.941Z" fill="#EDEDED"/>
<path d="M721.821 372.941L719.782 371.095L717.743 372.941L719.782 374.786L721.821 372.941Z" fill="#EDEDED"/>
<path d="M260.417 396.134L258.378 394.289L256.339 396.134L258.378 397.979L260.417 396.134Z" fill="#EDEDED"/>
<path d="M286.051 396.134L284.012 394.289L281.973 396.134L284.012 397.979L286.051 396.134Z" fill="#EDEDED"/>
<path d="M311.684 396.134L309.645 394.289L307.606 396.134L309.645 397.979L311.684 396.134Z" fill="#EDEDED"/>
<path d="M337.318 396.134L335.279 394.289L333.24 396.134L335.279 397.979L337.318 396.134Z" fill="#EDEDED"/>
<path d="M362.952 396.134L360.912 394.289L358.873 396.134L360.912 397.979L362.952 396.134Z" fill="#EDEDED"/>
<path d="M388.585 396.134L386.546 394.289L384.507 396.134L386.546 397.979L388.585 396.134Z" fill="#EDEDED"/>
<path d="M414.219 396.134L412.179 394.289L410.14 396.134L412.179 397.979L414.219 396.134Z" fill="#EDEDED"/>
<path d="M439.852 396.134L437.813 394.289L435.774 396.134L437.813 397.979L439.852 396.134Z" fill="#EDEDED"/>
<path d="M465.486 396.134L463.446 394.289L461.407 396.134L463.446 397.979L465.486 396.134Z" fill="#EDEDED"/>
<path d="M491.119 396.134L489.08 394.289L487.041 396.134L489.08 397.979L491.119 396.134Z" fill="#EDEDED"/>
<path d="M516.753 396.134L514.714 394.289L512.674 396.134L514.714 397.979L516.753 396.134Z" fill="#EDEDED"/>
<path d="M542.386 396.134L540.347 394.289L538.308 396.134L540.347 397.979L542.386 396.134Z" fill="#EDEDED"/>
<path d="M568.02 396.134L565.981 394.289L563.942 396.134L565.981 397.979L568.02 396.134Z" fill="#EDEDED"/>
<path d="M593.653 396.134L591.614 394.289L589.575 396.134L591.614 397.979L593.653 396.134Z" fill="#EDEDED"/>
<path d="M619.287 396.134L617.248 394.289L615.209 396.134L617.248 397.979L619.287 396.134Z" fill="#EDEDED"/>
<path d="M644.92 396.134L642.881 394.289L640.842 396.134L642.881 397.979L644.92 396.134Z" fill="#EDEDED"/>
<path d="M670.554 396.134L668.515 394.289L666.476 396.134L668.515 397.979L670.554 396.134Z" fill="#EDEDED"/>
<path d="M696.187 396.134L694.148 394.289L692.109 396.134L694.148 397.979L696.187 396.134Z" fill="#EDEDED"/>
<path d="M721.821 396.134L719.782 394.289L717.743 396.134L719.782 397.979L721.821 396.134Z" fill="#EDEDED"/>
<path d="M260.417 419.328L258.378 417.483L256.339 419.328L258.378 421.173L260.417 419.328Z" fill="#EDEDED"/>
<path d="M286.051 419.328L284.012 417.483L281.973 419.328L284.012 421.173L286.051 419.328Z" fill="#EDEDED"/>
<path d="M311.684 419.328L309.645 417.483L307.606 419.328L309.645 421.173L311.684 419.328Z" fill="#EDEDED"/>
<path d="M337.318 419.328L335.279 417.483L333.24 419.328L335.279 421.173L337.318 419.328Z" fill="#EDEDED"/>
<path d="M362.952 419.328L360.912 417.483L358.873 419.328L360.912 421.173L362.952 419.328Z" fill="#EDEDED"/>
<path d="M388.585 419.328L386.546 417.483L384.507 419.328L386.546 421.173L388.585 419.328Z" fill="#EDEDED"/>
<path d="M414.219 419.328L412.179 417.483L410.14 419.328L412.179 421.173L414.219 419.328Z" fill="#EDEDED"/>
<path d="M439.852 419.328L437.813 417.483L435.774 419.328L437.813 421.173L439.852 419.328Z" fill="#EDEDED"/>
<path d="M465.486 419.328L463.446 417.483L461.407 419.328L463.446 421.173L465.486 419.328Z" fill="#EDEDED"/>
<path d="M491.119 419.328L489.08 417.483L487.041 419.328L489.08 421.173L491.119 419.328Z" fill="#EDEDED"/>
<path d="M516.753 419.328L514.714 417.483L512.674 419.328L514.714 421.173L516.753 419.328Z" fill="#EDEDED"/>
<path d="M542.386 419.328L540.347 417.483L538.308 419.328L540.347 421.173L542.386 419.328Z" fill="#EDEDED"/>
<path d="M568.02 419.328L565.981 417.483L563.942 419.328L565.981 421.173L568.02 419.328Z" fill="#EDEDED"/>
<path d="M593.653 419.328L591.614 417.483L589.575 419.328L591.614 421.173L593.653 419.328Z" fill="#EDEDED"/>
<path d="M619.287 419.328L617.248 417.483L615.209 419.328L617.248 421.173L619.287 419.328Z" fill="#EDEDED"/>
<path d="M644.92 419.328L642.881 417.483L640.842 419.328L642.881 421.173L644.92 419.328Z" fill="#EDEDED"/>
<path d="M670.554 419.328L668.515 417.483L666.476 419.328L668.515 421.173L670.554 419.328Z" fill="#EDEDED"/>
<path d="M696.187 419.328L694.148 417.483L692.109 419.328L694.148 421.173L696.187 419.328Z" fill="#EDEDED"/>
<path d="M721.821 419.328L719.782 417.483L717.743 419.328L719.782 421.173L721.821 419.328Z" fill="#EDEDED"/>
</svg>
