<svg xmlns="http://www.w3.org/2000/svg" xmlns:xlink="http://www.w3.org/1999/xlink" viewBox="0,0,256,256" width="480px" height="480px"><defs><linearGradient x1="31.387" y1="-10.828" x2="38.357" y2="28.703" gradientUnits="userSpaceOnUse" id="color-1"><stop offset="0" stop-color="#0def6a"></stop><stop offset="1" stop-color="#262626" stop-opacity="0.8"></stop></linearGradient><linearGradient x1="7.756" y1="8.598" x2="14.727" y2="48.129" gradientUnits="userSpaceOnUse" id="color-2"><stop offset="0" stop-color="#0def6a"></stop><stop offset="1" stop-color="#262626" stop-opacity="0.8"></stop></linearGradient><linearGradient x1="24.978" y1="8.625" x2="34.081" y2="33.635" gradientUnits="userSpaceOnUse" id="color-3"><stop offset="0" stop-color="#0def6a"></stop><stop offset="1" stop-color="#262626" stop-opacity="0.8"></stop></linearGradient><linearGradient x1="14.954" y1="17.207" x2="24.056" y2="42.217" gradientUnits="userSpaceOnUse" id="color-4"><stop offset="0" stop-color="#0def6a"></stop><stop offset="1" stop-color="#262626" stop-opacity="0.8"></stop></linearGradient></defs><g fill="none" fill-rule="nonzero" stroke="none" stroke-width="1" stroke-linecap="butt" stroke-linejoin="miter" stroke-miterlimit="10" stroke-dasharray="" stroke-dashoffset="0" font-family="none" font-weight="none" font-size="none" text-anchor="none" style="mix-blend-mode: normal"><g transform="scale(5.33333,5.33333)"><path d="M39,10c-0.378,0 -0.747,0.039 -1.106,0.106c0.067,-0.359 0.106,-0.728 0.106,-1.106c0,-3.314 -2.686,-6 -6,-6c-3.314,0 -6,2.686 -6,6c0,3.314 2.686,6 6,6c0.378,0 0.747,-0.039 1.106,-0.106c-0.067,0.359 -0.106,0.728 -0.106,1.106c0,3.314 2.686,6 6,6c3.314,0 6,-2.686 6,-6c0,-3.314 -2.686,-6 -6,-6z" fill="url(#color-1)"></path><path d="M16,33c-0.378,0 -0.747,0.039 -1.106,0.106c0.067,-0.359 0.106,-0.728 0.106,-1.106c0,-3.314 -2.686,-6 -6,-6c-3.314,0 -6,2.686 -6,6c0,3.314 2.686,6 6,6c0.378,0 0.747,-0.039 1.106,-0.106c-0.067,0.359 -0.106,0.728 -0.106,1.106c0,3.314 2.686,6 6,6c3.314,0 6,-2.686 6,-6c0,-3.314 -2.686,-6 -6,-6z" fill="url(#color-2)"></path><path d="M24,22h4v5l6.757,-6.757c-1.085,-1.086 -1.757,-2.586 -1.757,-4.243c0,-0.378 0.039,-0.747 0.106,-1.106c-0.359,0.067 -0.728,0.106 -1.106,0.106c-1.657,0 -3.157,-0.672 -4.243,-1.757l-3.757,3.757z" fill="url(#color-3)"></path><path d="M24,26h-4v-5l-6.757,6.757c1.085,1.086 1.757,2.586 1.757,4.243c0,0.378 -0.039,0.747 -0.106,1.106c0.359,-0.067 0.728,-0.106 1.106,-0.106c1.657,0 3.157,0.672 4.243,1.757l3.757,-3.757z" fill="url(#color-4)"></path></g></g></svg>