<svg xmlns="http://www.w3.org/2000/svg" xmlns:xlink="http://www.w3.org/1999/xlink" viewBox="0,0,255.99431,255.99431" width="480px" height="480px"><defs><linearGradient x1="-0.215" y1="24.435" x2="35.248" y2="3.96" gradientUnits="userSpaceOnUse" id="color-1"><stop offset="0" stop-color="#0def6a"></stop><stop offset="1" stop-color="#262626" stop-opacity="0.8"></stop></linearGradient><linearGradient x1="11.51578" y1="3.24669" x2="46.97915" y2="23.72105" gradientUnits="userSpaceOnUse" id="color-2"><stop offset="0" stop-color="#0def6a"></stop><stop offset="1" stop-color="#262626" stop-opacity="0.8"></stop></linearGradient><linearGradient x1="35.73078" y1="2.81169" x2="35.73115" y2="43.76105" gradientUnits="userSpaceOnUse" id="color-3"><stop offset="0" stop-color="#0def6a"></stop><stop offset="1" stop-color="#262626" stop-opacity="0.8"></stop></linearGradient><linearGradient x1="48.215" y1="23.565" x2="12.752" y2="44.04" gradientUnits="userSpaceOnUse" id="color-4"><stop offset="0" stop-color="#0def6a"></stop><stop offset="1" stop-color="#262626" stop-opacity="0.8"></stop></linearGradient><linearGradient x1="36.48422" y1="44.75331" x2="1.02085" y2="24.27895" gradientUnits="userSpaceOnUse" id="color-5"><stop offset="0" stop-color="#0def6a"></stop><stop offset="1" stop-color="#262626" stop-opacity="0.8"></stop></linearGradient><linearGradient x1="12.26922" y1="45.18831" x2="12.26885" y2="4.23895" gradientUnits="userSpaceOnUse" id="color-6"><stop offset="0" stop-color="#0def6a"></stop><stop offset="1" stop-color="#262626" stop-opacity="0.8"></stop></linearGradient><linearGradient x1="16.125" y1="68.663" x2="25.258" y2="16.865" gradientUnits="userSpaceOnUse" id="color-7"><stop offset="0" stop-color="#0def6a"></stop><stop offset="1" stop-color="#262626" stop-opacity="0.8"></stop></linearGradient></defs><g fill="none" fill-rule="nonzero" stroke="none" stroke-width="1" stroke-linecap="butt" stroke-linejoin="miter" stroke-miterlimit="10" stroke-dasharray="" stroke-dashoffset="0" font-family="none" font-weight="none" font-size="none" text-anchor="none" style="mix-blend-mode: normal"><g transform="scale(5.33333,5.33333)"><path d="M27.47,18h-22.55c2.12,-6.76 7.74,-11.98 14.74,-13.52z" fill="url(#color-1)"></path><path d="M30.931,24.005l-11.275,-19.529c6.914,-1.544 14.245,0.713 19.079,6.005z" fill="url(#color-2)"></path><path d="M27.461,30.005l11.275,-19.529c4.794,5.216 6.505,12.693 4.339,19.525z" fill="url(#color-3)"></path><path d="M20.53,30h22.55c-2.12,6.76 -7.74,11.98 -14.74,13.52z" fill="url(#color-4)"></path><path d="M17.069,23.995l11.275,19.529c-6.914,1.544 -14.245,-0.713 -19.079,-6.005z" fill="url(#color-5)"></path><path d="M20.539,17.995l-11.275,19.529c-4.794,-5.216 -6.505,-12.693 -4.339,-19.525z" fill="url(#color-6)"></path><path d="M27.461,30.005l-6.931,-0.005l-3.461,-6.005l3.47,-6l6.931,0.005l3.461,6.005z" fill="url(#color-7)"></path></g></g></svg>