<svg xmlns="http://www.w3.org/2000/svg" xmlns:xlink="http://www.w3.org/1999/xlink" viewBox="0,0,256,256" width="480px" height="480px"><defs><linearGradient x1="-19.823" y1="44.765" x2="61.188" y2="1.649" gradientUnits="userSpaceOnUse" id="color-1"><stop offset="0" stop-color="#0def6a"></stop><stop offset="1" stop-color="#262626" stop-opacity="0.8"></stop></linearGradient><linearGradient x1="7.541" y1="31.367" x2="33.957" y2="17.307" gradientUnits="userSpaceOnUse" id="color-2"><stop offset="0" stop-color="#0def6a"></stop><stop offset="1" stop-color="#262626" stop-opacity="0.8"></stop></linearGradient></defs><g fill="none" fill-rule="nonzero" stroke="none" stroke-width="1" stroke-linecap="butt" stroke-linejoin="miter" stroke-miterlimit="10" stroke-dasharray="" stroke-dashoffset="0" font-family="none" font-weight="none" font-size="none" text-anchor="none" style="mix-blend-mode: normal"><g transform="scale(5.33333,5.33333)"><path d="M46,16.5c0,-6.35 -5.15,-11.5 -11.5,-11.5c-4.68,0 -8.71,2.8 -10.5,6.81c-1.79,-4.01 -5.82,-6.81 -10.5,-6.81c-6.35,0 -11.5,5.15 -11.5,11.5c0,3.02 1.17,5.76 3.08,7.81l-0.01,0.01l18.93,20.68l18.93,-20.68l-0.01,-0.01c1.91,-2.05 3.08,-4.79 3.08,-7.81z" fill="url(#color-1)"></path><path d="M24,11.81l-5.725,5.881c-0.722,0.741 -0.759,1.911 -0.085,2.697l4.81,5.612l-2,9l6.69,-6.69c0.739,-0.739 0.784,-1.922 0.104,-2.716l-4.794,-5.594z" fill="url(#color-2)"></path></g></g></svg>