<svg xmlns="http://www.w3.org/2000/svg"  viewBox="0 0 48 48" width="480px" height="480px" baseProfile="basic"><linearGradient id="e_ZJSCc7pkirUVfNW-mnHa" x1="-3.175" x2="63.145" y1="-8.386" y2="70.651" gradientUnits="userSpaceOnUse"><stop offset="0" stop-color="#262626" stop-opacity="0"/><stop offset="1" stop-color="#262626" stop-opacity=".8"/></linearGradient><path fill="url(#e_ZJSCc7pkirUVfNW-mnHa)" d="M45,18.09V8H8c-2.75,0-5,2.25-5,5v5.09c2.84,0.47,5,2.94,5,5.91c0,2.97-2.16,5.44-5,5.91V40	h37c2.75,0,5-2.25,5-5v-5.09c-2.84-0.47-5-2.94-5-5.91C40,21.03,42.16,18.56,45,18.09z"/><linearGradient id="e_ZJSCc7pkirUVfNW-mnHb" x1="14.598" x2="29.776" y1="47.719" y2="6.019" gradientUnits="userSpaceOnUse"><stop offset="0" stop-color="#262626" stop-opacity="0"/><stop offset="1" stop-color="#262626" stop-opacity=".8"/></linearGradient><polygon fill="url(#e_ZJSCc7pkirUVfNW-mnHb)" points="24,14 26.928,20.473 33.989,21.257 28.737,26.042 30.173,33 24,29.484 17.827,33 19.263,26.042 14.011,21.257 21.072,20.473"/></svg>