<svg xmlns="http://www.w3.org/2000/svg" xmlns:xlink="http://www.w3.org/1999/xlink" viewBox="0,0,256,256" width="480px" height="480px"><defs><linearGradient x1="-0.142" y1="19.167" x2="29.711" y2="54.745" gradientUnits="userSpaceOnUse" id="color-1"><stop offset="0" stop-color="#0def6a"></stop><stop offset="1" stop-color="#262626" stop-opacity="0.8"></stop></linearGradient><linearGradient x1="28.912" y1="8.757" x2="19.631" y2="34.256" gradientUnits="userSpaceOnUse" id="color-2"><stop offset="0" stop-color="#0def6a"></stop><stop offset="1" stop-color="#262626" stop-opacity="0.8"></stop></linearGradient><linearGradient x1="15.461" y1="14.371" x2="46.399" y2="14.371" gradientUnits="userSpaceOnUse" id="color-3"><stop offset="0" stop-color="#0def6a"></stop><stop offset="1" stop-color="#262626" stop-opacity="0.8"></stop></linearGradient><linearGradient x1="21.083" y1="24.757" x2="51.29" y2="24.757" gradientUnits="userSpaceOnUse" id="color-4"><stop offset="0" stop-color="#0def6a"></stop><stop offset="1" stop-color="#262626" stop-opacity="0.8"></stop></linearGradient><linearGradient x1="23.243" y1="26.917" x2="23.243" y2="-3.29" gradientUnits="userSpaceOnUse" id="color-5"><stop offset="0" stop-color="#0def6a"></stop><stop offset="1" stop-color="#262626" stop-opacity="0.8"></stop></linearGradient><linearGradient x1="7.196" y1="7" x2="23.761" y2="7" gradientUnits="userSpaceOnUse" id="color-6"><stop offset="0" stop-color="#0def6a"></stop><stop offset="1" stop-color="#262626" stop-opacity="0.8"></stop></linearGradient><linearGradient x1="24.196" y1="4" x2="40.761" y2="4" gradientUnits="userSpaceOnUse" id="color-7"><stop offset="0" stop-color="#0def6a"></stop><stop offset="1" stop-color="#262626" stop-opacity="0.8"></stop></linearGradient><linearGradient x1="36.196" y1="16" x2="52.761" y2="16" gradientUnits="userSpaceOnUse" id="color-8"><stop offset="0" stop-color="#0def6a"></stop><stop offset="1" stop-color="#262626" stop-opacity="0.8"></stop></linearGradient><linearGradient x1="33.196" y1="33" x2="49.761" y2="33" gradientUnits="userSpaceOnUse" id="color-9"><stop offset="0" stop-color="#0def6a"></stop><stop offset="1" stop-color="#262626" stop-opacity="0.8"></stop></linearGradient></defs><g fill="none" fill-rule="nonzero" stroke="none" stroke-width="1" stroke-linecap="butt" stroke-linejoin="miter" stroke-miterlimit="10" stroke-dasharray="" stroke-dashoffset="0" font-family="none" font-weight="none" font-size="none" text-anchor="none" style="mix-blend-mode: normal"><g transform="scale(5.33333,5.33333)"><path d="M30,35l-23.163,9.265c-1.114,0.446 -2.387,0.184 -3.235,-0.664l-0.602,-0.601l10,-25z" fill="url(#color-1)"></path><path d="M29.879,34.879l-18.879,-18.879l0.879,-0.879c1.172,-1.172 3.071,-1.172 4.243,0l18.878,18.879l-0.879,0.879c-1.171,1.171 -3.071,1.171 -4.242,0z" fill="url(#color-2)"></path><path d="M28.414,22.414l-2.828,-2.828l12.379,-12.379c1.172,-1.172 3.071,-1.172 4.243,0l0.707,0.707z" fill="url(#color-3)"></path><path d="M34.4,28.428l-2.8,-2.856c4.588,-4.5 8.397,-6.205 15.37,-2.34l-0.581,1.048c-0.715,1.29 -2.273,1.883 -3.652,1.36c-3.555,-1.349 -5.396,-0.096 -8.337,2.788z" fill="url(#color-4)"></path><path d="M19.572,13.6l2.855,2.801c4.5,-4.588 6.205,-8.397 2.34,-15.37l-1.047,0.58c-1.29,0.715 -1.883,2.273 -1.36,3.652c1.349,3.555 0.096,5.396 -2.788,8.337z" fill="url(#color-5)"></path><circle cx="15" cy="7" r="2" fill="url(#color-6)"></circle><circle cx="32" cy="4" r="2" fill="url(#color-7)"></circle><circle cx="44" cy="16" r="2" fill="url(#color-8)"></circle><circle cx="41" cy="33" r="2" fill="url(#color-9)"></circle></g></g></svg>