<svg xmlns="http://www.w3.org/2000/svg" xmlns:xlink="http://www.w3.org/1999/xlink" viewBox="0,0,256,256" width="480px" height="480px"><defs><linearGradient x1="34.696" y1="-5.725" x2="9.834" y2="62.583" gradientUnits="userSpaceOnUse" id="color-1"><stop offset="0" stop-color="#0def6a"></stop><stop offset="1" stop-color="#262626" stop-opacity="0.8"></stop></linearGradient><linearGradient x1="29.95" y1="73.243" x2="22.252" y2="29.584" gradientUnits="userSpaceOnUse" id="color-2"><stop offset="0" stop-color="#0def6a"></stop><stop offset="1" stop-color="#262626" stop-opacity="0.8"></stop></linearGradient><linearGradient x1="29.512" y1="-9.259" x2="19.91" y2="45.197" gradientUnits="userSpaceOnUse" id="color-3"><stop offset="0" stop-color="#0def6a"></stop><stop offset="1" stop-color="#262626" stop-opacity="0.8"></stop></linearGradient></defs><g fill="none" fill-rule="nonzero" stroke="none" stroke-width="1" stroke-linecap="butt" stroke-linejoin="miter" stroke-miterlimit="10" stroke-dasharray="" stroke-dashoffset="0" font-family="none" font-weight="none" font-size="none" text-anchor="none" style="mix-blend-mode: normal"><g transform="scale(5.33333,5.33333)"><path d="M40,7.854v32.146h-32v-32.146c0,-1.136 0.642,-2.175 1.658,-2.683l2.342,-1.171l4,2l4,-2l4,2l4,-2l4,2l4,-2l2.342,1.171c1.016,0.508 1.658,1.547 1.658,2.683z" fill="url(#color-1)"></path><path d="M46,36v2c0,2.76 -2.24,5 -5,5h-39v-2c0,-2.76 2.24,-5 5,-5h1v4h32v-4z" fill="url(#color-2)"></path><path d="M35,13c0,1.657 -1.343,3 -3,3h-19v-1c0,-1.657 1.343,-3 3,-3h19zM26,21h-10c-1.657,0 -3,1.343 -3,3v1h10c1.657,0 3,-1.343 3,-3zM35,21h-3c-1.657,0 -3,1.343 -3,3v1h3c1.657,0 3,-1.343 3,-3zM23,28h-7.033c-1.638,0 -2.967,1.329 -2.967,2.967v1.033h7.033c1.638,0 2.967,-1.329 2.967,-2.967zM35,28h-3c-1.657,0 -3,1.343 -3,3v1h3c1.657,0 3,-1.343 3,-3z" fill="url(#color-3)"></path></g></g></svg>