<svg xmlns="http://www.w3.org/2000/svg" xmlns:xlink="http://www.w3.org/1999/xlink" viewBox="0,0,256,256" width="480px" height="480px"><defs><linearGradient x1="35" y1="-8.53" x2="35" y2="41.682" gradientUnits="userSpaceOnUse" id="color-1"><stop offset="0" stop-color="#0def6a"></stop><stop offset="1" stop-color="#262626" stop-opacity="0.8"></stop></linearGradient><linearGradient x1="35.7" y1="-0.29" x2="-5.164" y2="70.488" gradientUnits="userSpaceOnUse" id="color-2"><stop offset="0" stop-color="#0def6a"></stop><stop offset="1" stop-color="#262626" stop-opacity="0.8"></stop></linearGradient><linearGradient x1="52.93289" y1="55.9049" x2="13.40281" y2="16.3762" gradientUnits="userSpaceOnUse" id="color-3"><stop offset="0" stop-color="#0def6a"></stop><stop offset="1" stop-color="#262626" stop-opacity="0.8"></stop></linearGradient><linearGradient x1="8.42488" y1="22.54509" x2="19.93788" y2="15.89809" gradientUnits="userSpaceOnUse" id="color-4"><stop offset="0" stop-color="#0def6a"></stop><stop offset="1" stop-color="#262626" stop-opacity="0.8"></stop></linearGradient><linearGradient x1="-4.40083" y1="10.38166" x2="15.91223" y2="10.3806" gradientUnits="userSpaceOnUse" id="color-5"><stop offset="0" stop-color="#0def6a"></stop><stop offset="1" stop-color="#262626" stop-opacity="0.8"></stop></linearGradient></defs><g fill="none" fill-rule="nonzero" stroke="none" stroke-width="1" stroke-linecap="butt" stroke-linejoin="miter" stroke-miterlimit="10" stroke-dasharray="" stroke-dashoffset="0" font-family="none" font-weight="none" font-size="none" text-anchor="none" style="mix-blend-mode: normal"><g transform="scale(5.33333,5.33333)"><path d="M46,14c0,6.49 -5.613,11.662 -12.251,10.931c-5.033,-0.555 -9.125,-4.647 -9.68,-9.68c-0.731,-6.638 4.441,-12.251 10.931,-12.251c1.357,0 2.649,0.248 3.85,0.697l-7.517,7.553l4.301,4.301c1.17,1.17 3.065,1.172 4.237,0.005l5.432,-5.406c0.449,1.201 0.697,2.493 0.697,3.85z" fill="url(#color-1)"></path><path d="M31.3,24.36l-18.13,18.13c-1.96,1.96 -5.12,1.96 -7.08,0l-3.12,-3.12l21.67,-21.67c1.1,3.1 3.56,5.56 6.66,6.66z" fill="url(#color-2)"></path><path d="M29.16,26.503l10.457,10.457c1.757,1.757 1.757,4.607 0,6.364l-2.475,2.475l-13.64,-13.641z" fill="url(#color-3)"></path><path d="M12.686,12.858l-2.828,2.828l8.398,8.398l2.828,-2.828z" fill="url(#color-4)"></path><path d="M12.53,11.14l0.156,1.718l-2.828,2.828l-1.718,-0.156c-1.353,-0.123 -2.552,-0.925 -3.182,-2.129l-2.871,-5.486l2.828,-2.828l5.486,2.871c1.204,0.63 2.006,1.828 2.129,3.182z" fill="url(#color-5)"></path></g></g></svg>