<?xml version="1.0" encoding="UTF-8"?>
<svg id="Ebene_2" data-name="Ebene 2" xmlns="http://www.w3.org/2000/svg" viewBox="0 0 48 48">
  <defs>
    <style>
      .cls-1 {
        fill: #212322;
      }

      .cls-2 {
        fill: #0def6a;
      }
    </style>
  </defs>
  <g id="Ebene_1-2" data-name="Ebene 1">
    <rect class="cls-1" width="48" height="48" rx="8.06" ry="8.06"/>
    <g id="Ebene_1-2" data-name="Ebene 1-2">
      <path class="cls-2" d="M34.92,16.28l-5.56-2.24-.1-6.6c0-.52-.44-.93-.95-.92-.52,0-.93.44-.92.95v.87c-1.36.21-3.89.56-6.44.68-2.58.12-5.17,0-6.52-.08l-.05-.86c-.03-.52-.47-.91-.99-.88-.52.03-.91.48-.88.99l.75,12.69c0,.26.13.49.24.62l2.64,3.03c.19.21.44.32.71.32.09,0,.18-.01.27-.04l3.26,3.01-6.64,7.58c-.34.39-.3.98.09,1.32.18.16.4.23.62.23.26,0,.52-.11.71-.32l1.18-1.35,2.91,2.63-1.64,2.01c-.33.4-.27.99.13,1.32.17.14.38.21.59.21.27,0,.54-.12.73-.34l6.76-8.26,6.59,6.09c.21.19.48.29.74.29.29,0,.59-.12.8-.35.41-.44.38-1.14-.06-1.55l-6.68-6.18,6.84-8.36c.07.02.15.03.22.03.34,0,.67-.19.84-.51.24-.46.05-1.03-.41-1.26l-.67-.34.08-2.76.12.05c.11.05.23.07.35.07.37,0,.72-.22.87-.59.19-.48-.04-1.03-.52-1.22h0ZM15.07,19.92l-.15-2.6,2.21,1.01.09,1.87c-.84-.09-1.59-.2-2.15-.28h0ZM19.05,19.21l.38.17c.13.06.26.08.39.08.36,0,.7-.2.85-.55.21-.47,0-1.03-.46-1.24l-5.41-2.48-.04-.61c1.32.1,4.02.27,6.66.12,2.44-.14,4.77-.57,6.06-.84l.08,5.44c-.71.3-1.95.7-4.05.98-1.37.18-2.94.17-4.41.08l-.06-1.16h0ZM19.39,23.96c1.01.04,2.63.07,4.39-.02l-1.98,2.26-2.42-2.24h0ZM20.42,36.48l-2.86-2.59,4.19-4.78,2.68,2.48-4,4.89h0ZM25.81,29.9l-2.63-2.43,3.3-3.76c2.03-.26,3.98-.77,5.38-1.19,0,0-6.05,7.39-6.05,7.39ZM29.43,18.38l-.04-2.3,2.85,1.15-.07,2.56-2.74-1.4h0Z"/>
    </g>
  </g>
</svg>