<svg xmlns="http://www.w3.org/2000/svg" xmlns:xlink="http://www.w3.org/1999/xlink" viewBox="0,0,256,256" width="480px" height="480px"><defs><linearGradient x1="26.846" y1="15.846" x2="48.39" y2="37.39" gradientUnits="userSpaceOnUse" id="color-1"><stop offset="0" stop-color="#0def6a"></stop><stop offset="1" stop-color="#262626" stop-opacity="0.8"></stop></linearGradient><linearGradient x1="-4.545" y1="19.577" x2="18.684" y2="42.805" gradientUnits="userSpaceOnUse" id="color-2"><stop offset="0" stop-color="#0def6a"></stop><stop offset="1" stop-color="#262626" stop-opacity="0.8"></stop></linearGradient><linearGradient x1="18.768" y1="15.625" x2="28.288" y2="41.782" gradientUnits="userSpaceOnUse" id="color-3"><stop offset="0" stop-color="#0def6a"></stop><stop offset="1" stop-color="#262626" stop-opacity="0.8"></stop></linearGradient><linearGradient x1="18.768" y1="23.625" x2="28.288" y2="49.782" gradientUnits="userSpaceOnUse" id="color-4"><stop offset="0" stop-color="#0def6a"></stop><stop offset="1" stop-color="#262626" stop-opacity="0.8"></stop></linearGradient><linearGradient x1="22.409" y1="12.569" x2="40.033" y2="30.193" gradientUnits="userSpaceOnUse" id="color-5"><stop offset="0" stop-color="#0def6a"></stop><stop offset="1" stop-color="#262626" stop-opacity="0.8"></stop></linearGradient><linearGradient x1="8.375" y1="13.375" x2="26.029" y2="31.029" gradientUnits="userSpaceOnUse" id="color-6"><stop offset="0" stop-color="#0def6a"></stop><stop offset="1" stop-color="#262626" stop-opacity="0.8"></stop></linearGradient><linearGradient x1="23.825" y1="3.802" x2="42.799" y2="22.776" gradientUnits="userSpaceOnUse" id="color-7"><stop offset="0" stop-color="#0def6a"></stop><stop offset="1" stop-color="#262626" stop-opacity="0.8"></stop></linearGradient><linearGradient x1="-3.389" y1="-5.425" x2="23.665" y2="21.63" gradientUnits="userSpaceOnUse" id="color-8"><stop offset="0" stop-color="#0def6a"></stop><stop offset="1" stop-color="#262626" stop-opacity="0.8"></stop></linearGradient></defs><g fill="none" fill-rule="nonzero" stroke="none" stroke-width="1" stroke-linecap="butt" stroke-linejoin="miter" stroke-miterlimit="10" stroke-dasharray="" stroke-dashoffset="0" font-family="none" font-weight="none" font-size="none" text-anchor="none" style="mix-blend-mode: normal"><g transform="scale(5.33333,5.33333)"><path d="M44,20v19c0,1.657 -1.343,3 -3,3h-1v-19c0,-1.657 1.343,-3 3,-3z" fill="url(#color-1)"></path><path d="M8,20v22h-1c-1.657,0 -3,-1.343 -3,-3v-16c0,-1.657 1.343,-3 3,-3z" fill="url(#color-2)"></path><rect x="8" y="26" width="32" height="8" fill="url(#color-3)"></rect><rect x="8" y="34" width="32" height="8" fill="url(#color-4)"></rect><path d="M35,18.32v7.68h-6v-7.68c0.91,0.44 1.92,0.68 3,0.68c1.08,0 2.09,-0.24 3,-0.68z" fill="url(#color-5)"></path><rect x="13" y="15" width="5" height="11" fill="url(#color-6)"></rect><path d="M39,12c0,3.922 -3.215,7.084 -7.157,6.998c-3.655,-0.08 -6.73,-3.125 -6.84,-6.78c-0.087,-2.893 1.566,-5.389 3.997,-6.538v7.32h4c1.105,0 2,-0.895 2,-2v-5.32c2.37,1.12 4,3.52 4,6.32z" fill="url(#color-7)"></path><path d="M23,15h-15v-6h10c2.761,0 5,2.239 5,5z" fill="url(#color-8)"></path></g></g></svg>