<svg xmlns="http://www.w3.org/2000/svg" xmlns:xlink="http://www.w3.org/1999/xlink" viewBox="0,0,256,256" width="480px" height="480px"><defs><linearGradient x1="6.927" y1="-25.933" x2="35.451" y2="52.436" gradientUnits="userSpaceOnUse" id="color-1"><stop offset="0" stop-color="#0def6a"></stop><stop offset="1" stop-color="#262626" stop-opacity="0.8"></stop></linearGradient><linearGradient x1="18.756" y1="6.569" x2="34.912" y2="50.959" gradientUnits="userSpaceOnUse" id="color-2"><stop offset="0" stop-color="#0def6a"></stop><stop offset="1" stop-color="#262626" stop-opacity="0.8"></stop></linearGradient></defs><g fill="none" fill-rule="nonzero" stroke="none" stroke-width="1" stroke-linecap="butt" stroke-linejoin="miter" stroke-miterlimit="10" stroke-dasharray="" stroke-dashoffset="0" font-family="none" font-weight="none" font-size="none" text-anchor="none" style="mix-blend-mode: normal"><g transform="scale(5.33333,5.33333)"><path d="M24,3c-9.938,0 -18,8.062 -18,18c0,4.879 1.98,9.256 5.097,12.534c0.019,0.019 12.903,12.912 12.903,12.912c0,0 12.884,-12.894 12.903,-12.913c3.117,-3.277 5.097,-7.654 5.097,-12.533c0,-9.938 -8.062,-18 -18,-18zM24,28.981c-4.419,0 -8,-3.581 -8,-8c0,-4.419 3.581,-8 8,-8c4.419,0 8,3.581 8,8c0,4.419 -3.581,8 -8,8z" fill="url(#color-1)"></path><path d="M32,20.978c0,4.418 -3.582,8 -8,8c-4.418,0 -8,-3.582 -8,-8c0,-4.418 3.582,-8 8,-8c4.418,0 8,3.582 8,8z" fill="url(#color-2)"></path></g></g></svg>