<svg xmlns="http://www.w3.org/2000/svg" xmlns:xlink="http://www.w3.org/1999/xlink" viewBox="0,0,256,256" width="480px" height="480px"><defs><linearGradient x1="47.108" y1="11.507" x2="22.548" y2="54.046" gradientUnits="userSpaceOnUse" id="color-1"><stop offset="0" stop-color="#0def6a"></stop><stop offset="1" stop-color="#262626" stop-opacity="0.8"></stop></linearGradient><linearGradient x1="46.281" y1="52.832" x2="-25.93" y2="11.141" gradientUnits="userSpaceOnUse" id="color-2"><stop offset="0" stop-color="#0def6a"></stop><stop offset="1" stop-color="#262626" stop-opacity="0.8"></stop></linearGradient><linearGradient x1="14.659" y1="-1.18" x2="40.643" y2="43.827" gradientUnits="userSpaceOnUse" id="color-3"><stop offset="0" stop-color="#0def6a"></stop><stop offset="1" stop-color="#262626" stop-opacity="0.8"></stop></linearGradient><linearGradient x1="24" y1="-29.367" x2="24" y2="31.734" gradientUnits="userSpaceOnUse" id="color-4"><stop offset="0" stop-color="#0def6a"></stop><stop offset="1" stop-color="#262626" stop-opacity="0.8"></stop></linearGradient></defs><g fill="none" fill-rule="nonzero" stroke="none" stroke-width="1" stroke-linecap="butt" stroke-linejoin="miter" stroke-miterlimit="10" stroke-dasharray="" stroke-dashoffset="0" font-family="none" font-weight="none" font-size="none" text-anchor="none" style="mix-blend-mode: normal"><g transform="scale(5.33333,5.33333)"><path d="M44,16.84v23.16l-20,-11.58z" fill="url(#color-1)"></path><path d="M44,40l-40,-23.158v23.158z" fill="url(#color-2)"></path><path d="M31,13h-5v-5h-4v5h-5v4h5v5h4v-5h5z" fill="url(#color-3)"></path><path d="M24,28.421l-20,-11.581c0,-1 0.28,-1.95 0.77,-2.77c0.49,-0.82 1.21,-1.51 2.08,-1.98l17.15,-9.13l17.15,9.13c1.75,0.94 2.85,2.76 2.85,4.75zM31,13h-5v-5h-4v5h-5v4h5v5h4v-5h5z" fill="url(#color-4)"></path></g></g></svg>